<svg width="1920" height="716" viewBox="0 0 1920 716" fill="none" xmlns="http://www.w3.org/2000/svg">
<path d="M166.618 544.199C164.851 543.682 163.046 543.164 161.28 542.647C163.277 543.449 165.235 544.276 167.232 545.052C169.344 545.776 171.456 546.526 173.606 547.25C171.264 546.241 168.922 545.233 166.618 544.199ZM720.499 294.287C721.306 291.702 722.035 289.013 722.803 286.401C723.11 283.427 723.341 280.299 723.61 277.222C722.995 280.299 722.381 283.427 721.728 286.427C721.344 289.038 720.96 291.702 720.499 294.287ZM717.734 303.053C718.003 302.2 718.31 301.372 718.618 300.519C718.81 299.511 718.925 298.451 719.117 297.442C718.656 299.304 718.195 301.191 717.734 303.053ZM140.429 534.864C138.317 534.295 136.205 533.701 134.093 533.132C136.589 534.088 139.123 534.993 141.619 535.924C143.27 536.442 144.922 536.959 146.573 537.476C144.538 536.623 142.502 535.717 140.429 534.864ZM152.947 538.045C150.259 537.372 147.571 536.7 144.922 536.002C148.186 537.372 151.488 538.717 154.79 540.036C157.133 540.76 159.475 541.432 161.818 542.104C158.861 540.786 155.904 539.389 152.947 538.045ZM717.043 313.241C718.31 310.397 719.462 307.397 720.653 304.475C721.229 299.95 721.882 295.555 722.419 290.926C721.459 294.158 720.538 297.468 719.501 300.597C718.733 304.915 717.85 309.026 717.043 313.241ZM712.55 322.86C713.51 320.817 714.47 318.826 715.392 316.758C716.083 313.344 716.813 309.957 717.504 306.492C716.851 308.431 716.198 310.345 715.507 312.258C714.586 315.878 713.549 319.317 712.55 322.86ZM709.363 329.66C709.594 329.143 709.862 328.626 710.093 328.109L710.4 327.075C710.054 327.954 709.67 328.781 709.363 329.66ZM101.107 522.918C100.762 522.841 100.378 522.737 100.032 522.634C100.838 522.866 101.606 523.125 102.413 523.358C101.99 523.203 101.53 523.073 101.107 522.918ZM113.626 525.918C111.629 525.452 109.632 524.987 107.674 524.521C109.978 525.349 112.282 526.176 114.624 526.978C116.89 527.624 119.117 528.322 121.421 528.969C118.81 527.934 116.198 526.952 113.626 525.918ZM126.298 528.839C123.648 528.245 121.037 527.65 118.387 527.055C121.536 528.296 124.646 529.538 127.795 530.727C130.522 531.477 133.286 532.253 136.013 533.002C132.787 531.606 129.523 530.236 126.298 528.839ZM138.893 531.554C135.898 530.908 132.902 530.262 129.907 529.615C133.555 531.192 137.242 532.744 140.928 534.295C143.808 535.045 146.688 535.769 149.606 536.493C146.035 534.864 142.464 533.235 138.893 531.554ZM713.702 329.479C715.315 326.816 716.851 324.075 718.426 321.36C719.078 316.964 719.654 312.362 720.192 307.811C718.886 310.862 717.619 313.887 716.275 316.835C715.469 321.102 714.624 325.368 713.702 329.479ZM707.904 338.71C709.363 336.357 710.861 334.056 712.32 331.651C713.165 328.005 713.894 324.153 714.624 320.352C713.395 323.015 712.166 325.627 710.938 328.238C709.978 331.755 708.979 335.297 707.904 338.71ZM702.067 348.071C703.488 345.925 704.832 343.675 706.214 341.477C707.021 338.891 707.789 336.176 708.557 333.487C707.405 335.814 706.291 338.142 705.101 340.443C704.064 342.977 703.104 345.588 702.067 348.071ZM697.805 354.225C698.458 353.294 699.11 352.389 699.725 351.458C700.262 350.217 700.762 348.924 701.299 347.631C700.109 349.829 698.957 352.053 697.805 354.225ZM75.072 515.342C74.5728 515.238 74.0736 515.135 73.6128 515.032C74.6112 515.316 75.6096 515.575 76.608 515.833C76.0704 515.678 75.5712 515.497 75.072 515.342ZM87.7824 518.005C85.44 517.514 83.0976 517.023 80.7552 516.531C83.4816 517.436 86.2848 518.29 89.0496 519.169C91.008 519.686 93.0432 520.177 95.0016 520.694C92.544 519.789 90.1632 518.884 87.7824 518.005ZM100.109 520.384C97.344 519.867 94.5792 519.324 91.8528 518.781C95.1168 519.996 98.3808 521.186 101.645 522.375C104.333 523.047 107.021 523.694 109.709 524.314C106.483 523.022 103.296 521.703 100.109 520.384ZM112.474 522.66C109.478 522.142 106.483 521.599 103.488 521.031C107.021 522.479 110.554 523.927 114.086 525.349C117.197 526.073 120.269 526.823 123.379 527.521C119.77 525.943 116.122 524.314 112.474 522.66ZM124.877 524.832C121.69 524.289 118.502 523.72 115.354 523.177C119.155 524.883 122.957 526.616 126.797 528.296C129.984 528.995 133.21 529.693 136.435 530.391C132.557 528.529 128.717 526.693 124.877 524.832ZM709.862 345.382C711.782 343.054 713.664 340.701 715.546 338.297C716.39 333.41 717.312 328.6 718.118 323.584C716.506 326.351 714.854 329.091 713.242 331.806C712.166 336.435 711.014 340.857 709.862 345.382ZM702.95 353.63C704.832 351.432 706.675 349.234 708.518 346.985C709.632 342.667 710.746 338.478 711.821 334.056C710.246 336.616 708.672 339.124 707.059 341.632C705.754 345.718 704.333 349.622 702.95 353.63ZM695.962 361.801C697.766 359.758 699.571 357.638 701.376 355.544C702.605 351.975 703.872 348.459 705.062 344.864C703.603 347.14 702.106 349.441 700.608 351.665C699.072 355.104 697.498 358.414 695.962 361.801ZM689.434 368.938C690.97 367.257 692.506 365.602 694.042 363.895C695.309 361.155 696.538 358.414 697.805 355.673C696.691 357.302 695.578 358.905 694.464 360.508C692.813 363.378 691.085 366.093 689.434 368.938ZM683.942 374.911C684.826 373.954 685.709 372.946 686.63 371.989C687.13 371.187 687.59 370.36 688.09 369.532C686.746 371.394 685.325 373.101 683.942 374.911ZM48.9216 508.645C48.192 508.516 47.4624 508.386 46.7712 508.257C48.2688 508.619 49.728 508.981 51.2256 509.317C50.4576 509.11 49.6896 508.878 48.9216 508.645ZM61.4784 510.765C59.1744 510.403 56.8704 510.015 54.6048 509.653C57.2544 510.429 59.9424 511.205 62.592 511.955C64.9344 512.472 67.2384 513.015 69.5808 513.532C66.8928 512.601 64.1664 511.696 61.4784 510.765ZM73.9968 512.756C71.0784 512.317 68.16 511.825 65.2416 511.36C68.6208 512.523 72.0768 513.635 75.4944 514.773C78.2592 515.368 81.0624 515.937 83.8272 516.531C80.5248 515.29 77.2608 514.023 73.9968 512.756ZM86.2464 514.566C83.136 514.127 80.0256 513.661 76.9536 513.196C80.6784 514.644 84.48 516.04 88.2432 517.436C91.2 518.031 94.1952 518.6 97.152 519.169C93.504 517.643 89.856 516.118 86.2464 514.566ZM98.4192 516.221C95.232 515.807 92.0448 515.394 88.896 514.954C92.7744 516.609 96.6912 518.212 100.608 519.841C103.795 520.436 106.944 521.031 110.17 521.625C106.214 519.841 102.298 518.031 98.4192 516.221ZM110.554 517.772C107.251 517.359 103.987 516.945 100.723 516.531C104.794 518.419 108.864 520.281 112.973 522.116C116.237 522.685 119.501 523.28 122.803 523.849C118.694 521.832 114.624 519.789 110.554 517.772ZM706.061 360.301C708.288 358.31 710.515 356.345 712.704 354.302C713.626 349.7 714.432 344.813 715.238 340.029C713.318 342.46 711.36 344.787 709.402 347.166C708.326 351.587 707.251 356.035 706.061 360.301ZM698.266 367.205C700.493 365.292 702.682 363.327 704.87 361.361C706.022 357.302 707.021 352.984 708.096 348.743C706.138 351.096 704.218 353.423 702.259 355.725C700.915 359.603 699.648 363.508 698.266 367.205ZM690.394 373.954C692.544 372.144 694.733 370.282 696.883 368.421C698.189 364.956 699.379 361.258 700.646 357.638C698.765 359.836 696.845 361.982 694.925 364.128C693.427 367.438 691.968 370.773 690.394 373.954ZM682.675 380.289C684.71 378.634 686.746 376.979 688.781 375.299C690.24 372.377 691.584 369.274 692.966 366.223C691.123 368.265 689.28 370.256 687.437 372.247C685.901 374.962 684.326 377.677 682.675 380.289ZM675.072 386.469C676.915 385.021 678.72 383.495 680.563 382.021C681.946 379.824 683.328 377.574 684.672 375.299C683.021 377.031 681.37 378.712 679.718 380.418C678.144 382.461 676.646 384.53 675.072 386.469ZM669.274 390.891C670.272 390.141 671.232 389.417 672.23 388.641C673.229 387.4 674.266 386.184 675.264 384.917C673.267 386.908 671.27 388.925 669.274 390.891ZM23.5776 503.137C22.5024 503.008 21.4656 502.853 20.4288 502.723C22.5408 503.137 24.6912 503.551 26.8032 503.965C25.7664 503.68 24.6528 503.422 23.5776 503.137ZM35.7504 504.611C33.3696 504.327 30.9504 504.042 28.608 503.732C31.296 504.43 33.984 505.128 36.7104 505.801C39.168 506.24 41.6256 506.706 44.0832 507.145C41.28 506.318 38.4768 505.464 35.7504 504.611ZM47.8848 506.007C45.0432 505.697 42.2016 505.387 39.4368 505.077C42.7008 506.085 46.0032 507.093 49.3056 508.076C52.2624 508.593 55.1808 509.11 58.1376 509.602C54.72 508.412 51.3024 507.223 47.8848 506.007ZM60.0192 507.3C56.9088 506.99 53.8752 506.654 50.8032 506.344C54.4512 507.636 58.176 508.929 61.8624 510.222C65.0112 510.739 68.16 511.256 71.3088 511.748C67.5456 510.248 63.7824 508.8 60.0192 507.3ZM72.1536 508.49C68.928 508.179 65.7024 507.869 62.5152 507.559C66.432 509.136 70.4256 510.662 74.4192 512.213C77.6064 512.704 80.832 513.17 84.0576 513.635C80.064 511.903 76.0704 510.222 72.1536 508.49ZM84.1344 509.498C80.832 509.24 77.568 508.955 74.3424 508.671C78.4512 510.455 82.56 512.239 86.7072 513.997C89.9712 514.463 93.2736 514.902 96.576 515.342C92.3904 513.403 88.2432 511.489 84.1344 509.498ZM96.0768 510.455C92.736 510.196 89.3952 509.964 86.0928 509.679C90.3168 511.696 94.6176 513.687 98.88 515.652C102.221 516.092 105.562 516.531 108.941 516.945C104.64 514.799 100.339 512.627 96.0768 510.455ZM701.645 375.014C704.141 373.385 706.675 371.834 709.171 370.179C710.285 365.318 711.475 360.586 712.512 355.569C710.285 357.638 708.019 359.577 705.754 361.594C704.448 366.197 702.989 370.541 701.645 375.014ZM692.89 380.599C695.424 379.022 697.92 377.393 700.416 375.764C701.76 371.42 703.181 367.179 704.448 362.706C702.221 364.697 699.955 366.714 697.69 368.679C696.192 372.765 694.502 376.617 692.89 380.599ZM684.173 385.978C686.669 384.478 689.126 382.978 691.584 381.427C693.158 377.626 694.733 373.876 696.23 369.998C694.042 371.885 691.814 373.721 689.587 375.557C687.821 379.125 685.978 382.513 684.173 385.978ZM675.418 391.227C677.875 389.779 680.294 388.305 682.714 386.831C684.442 383.573 686.17 380.315 687.859 376.979C685.67 378.789 683.52 380.573 681.331 382.332C679.411 385.331 677.414 388.253 675.418 391.227ZM666.739 396.295C669.082 394.95 671.386 393.606 673.728 392.209C675.533 389.52 677.338 386.857 679.104 384.142C677.069 385.771 674.995 387.374 672.96 388.951C670.925 391.434 668.851 393.864 666.739 396.295ZM658.522 400.923C660.595 399.76 662.669 398.622 664.704 397.432C666.47 395.39 668.237 393.295 669.965 391.227C668.198 392.571 666.432 393.916 664.666 395.235C662.669 397.174 660.595 399.036 658.522 400.923ZM651.494 404.879C652.877 404.129 654.221 403.328 655.603 402.578C656.525 401.751 657.408 400.897 658.33 400.07C656.064 401.725 653.76 403.276 651.494 404.879ZM10.5216 499.646C7.9488 499.465 5.4528 499.284 2.9184 499.103C5.7984 499.724 8.6784 500.319 11.5968 500.913C13.9776 501.25 16.3968 501.56 18.816 501.87C15.9744 501.146 13.248 500.396 10.5216 499.646ZM22.4256 500.396C19.5072 500.215 16.5888 500.034 13.6704 499.853C17.0496 500.758 20.4672 501.663 23.8848 502.568C26.7264 502.93 29.6064 503.267 32.448 503.629C29.1072 502.542 25.7664 501.456 22.4256 500.396ZM34.3296 501.043C31.2192 500.888 28.1472 500.733 25.0752 500.552C28.7232 501.715 32.3712 502.905 36.096 504.042C39.2064 504.404 42.3168 504.766 45.4656 505.128C41.7024 503.784 38.016 502.413 34.3296 501.043ZM46.1952 501.638C42.9696 501.482 39.7824 501.327 36.5952 501.172C40.4736 502.594 44.352 504.042 48.2688 505.439C51.5328 505.801 54.7968 506.163 58.0608 506.499C54.0672 504.896 50.112 503.267 46.1952 501.638ZM58.0224 502.155C54.72 502.025 51.456 501.87 48.192 501.741C52.2624 503.422 56.2944 505.102 60.4032 506.731C63.7056 507.068 67.0464 507.378 70.3872 507.714C66.24 505.852 62.1312 504.016 58.0224 502.155ZM69.7728 502.543C66.432 502.439 63.1296 502.31 59.8656 502.206C64.0896 504.12 68.3136 506.033 72.576 507.895C75.8784 508.205 79.2576 508.49 82.5984 508.748C78.2976 506.706 74.0352 504.637 69.7728 502.543ZM81.4848 502.879C78.144 502.801 74.8032 502.724 71.5392 502.62C75.8784 504.74 80.1792 506.861 84.5568 508.955C87.936 509.24 91.3152 509.498 94.6944 509.757C90.2784 507.455 85.8624 505.18 81.4848 502.879ZM697.306 388.925C700.109 387.684 702.874 386.495 705.677 385.228C706.867 380.703 707.866 375.867 708.941 371.161C706.406 372.842 703.872 374.394 701.338 376.048C699.994 380.367 698.726 384.788 697.306 388.925ZM687.782 393.166C690.586 391.951 693.35 390.71 696.154 389.468C697.536 385.409 698.803 381.065 700.109 376.824C697.536 378.479 695.002 380.134 692.429 381.737C690.893 385.564 689.395 389.468 687.782 393.166ZM678.259 397.2C681.024 396.036 683.789 394.898 686.515 393.709C688.128 390.115 689.587 386.314 691.123 382.564C688.589 384.142 686.054 385.641 683.52 387.167C681.792 390.529 680.064 393.968 678.259 397.2ZM668.736 401.208C671.462 400.07 674.189 398.932 676.954 397.769C678.72 394.614 680.448 391.304 682.138 388.02C679.603 389.546 677.069 391.097 674.534 392.571C672.614 395.493 670.694 398.415 668.736 401.208ZM659.251 405.086C661.901 404.026 664.55 402.94 667.2 401.854C669.12 399.165 670.963 396.372 672.845 393.606C670.387 395.054 667.93 396.424 665.472 397.846C663.398 400.277 661.363 402.733 659.251 405.086ZM649.92 408.784C652.454 407.801 654.95 406.793 657.485 405.784C659.482 403.561 661.44 401.285 663.437 398.984C661.056 400.328 658.675 401.673 656.294 402.992C654.182 404.957 652.07 406.922 649.92 408.784ZM640.973 412.3C643.2 411.447 645.466 410.542 647.693 409.663C649.574 408.008 651.494 406.327 653.338 404.621C651.226 405.784 649.075 406.922 646.963 408.06C644.966 409.508 642.97 410.93 640.973 412.3ZM633.907 414.964C635.213 414.472 636.557 413.981 637.862 413.464C639.245 412.533 640.627 411.654 641.971 410.697C639.283 412.145 636.595 413.593 633.907 414.964ZM20.544 495.845C17.3184 495.871 14.0928 495.897 10.944 495.923C14.8224 497.216 18.7776 498.509 22.7328 499.802C25.92 499.983 29.1456 500.164 32.4096 500.345C28.416 498.845 24.4608 497.345 20.544 495.845ZM32.1408 495.716C28.8384 495.768 25.5744 495.794 22.3488 495.82C26.4192 497.371 30.4896 498.922 34.6368 500.448C37.9008 500.629 41.2032 500.784 44.5056 500.939C40.3584 499.233 36.2496 497.474 32.1408 495.716ZM43.7376 495.535C40.3968 495.587 37.0944 495.639 33.8304 495.69C38.0544 497.474 42.2784 499.259 46.5408 501.043C49.8816 501.198 53.184 501.353 56.5632 501.482C52.2624 499.517 48 497.526 43.7376 495.535ZM55.296 495.328C51.9168 495.406 48.6144 495.458 45.312 495.509C49.6512 497.526 53.9904 499.543 58.4064 501.534C61.7088 501.663 65.088 501.767 68.4288 501.896C64.0128 499.724 59.6736 497.526 55.296 495.328ZM66.816 495.044C63.4752 495.147 60.096 495.225 56.7936 495.302C61.2096 497.526 65.664 499.776 70.1568 501.974C73.4976 502.077 76.8768 502.181 80.256 502.258C75.7248 499.853 71.2704 497.449 66.816 495.044ZM692.237 402.604C695.309 401.751 698.342 400.897 701.414 400.044C702.758 395.416 704.141 390.865 705.408 386.081C702.605 387.348 699.802 388.563 696.96 389.83C695.462 394.2 693.811 398.337 692.237 402.604ZM681.946 405.474C685.018 404.647 688.09 403.767 691.123 402.914C692.698 398.751 694.31 394.64 695.808 390.348C692.966 391.615 690.163 392.882 687.322 394.097C685.594 397.975 683.75 401.673 681.946 405.474ZM671.693 408.215C674.726 407.387 677.76 406.612 680.794 405.758C682.56 402.061 684.365 398.415 686.054 394.614C683.251 395.829 680.448 396.967 677.645 398.156C675.725 401.595 673.69 404.879 671.693 408.215ZM661.402 410.982C664.435 410.18 667.469 409.353 670.464 408.551C672.422 405.293 674.419 402.087 676.339 398.725C673.536 399.915 670.733 401.104 667.93 402.268C665.779 405.241 663.59 408.086 661.402 410.982ZM651.187 413.645C654.182 412.869 657.139 412.119 660.134 411.318C662.246 408.525 664.358 405.733 666.432 402.888C663.667 404.026 660.941 405.112 658.176 406.198C655.872 408.732 653.53 411.189 651.187 413.645ZM641.011 416.282C643.93 415.533 646.848 414.783 649.766 414.033C651.994 411.68 654.259 409.327 656.448 406.922C653.76 408.008 651.034 409.094 648.346 410.154C645.888 412.197 643.43 414.24 641.011 416.282ZM630.989 418.816C633.754 418.118 636.518 417.42 639.322 416.722C641.587 414.834 643.853 412.947 646.118 411.033C643.584 412.016 641.011 412.999 638.477 413.981C635.942 415.584 633.485 417.187 630.989 418.816ZM621.466 421.169C623.923 420.575 626.381 419.954 628.877 419.334C631.027 417.937 633.178 416.541 635.328 415.119C633.062 415.972 630.835 416.825 628.57 417.653C626.227 418.842 623.846 420.006 621.466 421.169ZM613.747 423.057C615.283 422.695 616.858 422.281 618.394 421.919C619.622 421.325 620.851 420.704 622.08 420.109C619.315 421.118 616.512 422.074 613.747 423.057ZM17.9712 489.562C14.6688 489.821 11.3664 490.053 8.1408 490.312C12.3264 491.967 16.5504 493.596 20.8128 495.251C24.1152 495.225 27.4176 495.173 30.7584 495.147C26.4576 493.286 22.1952 491.424 17.9712 489.562ZM29.2992 488.709C25.9584 488.967 22.656 489.226 19.392 489.459C23.6928 491.346 28.0704 493.234 32.448 495.096C35.7888 495.044 39.1296 495.018 42.5088 494.94C38.0544 492.872 33.6384 490.803 29.2992 488.709ZM40.6272 487.83C37.2864 488.088 33.9456 488.347 30.6432 488.605C35.0592 490.726 39.552 492.846 44.0448 494.94C47.3856 494.889 50.7264 494.811 54.144 494.759C49.6128 492.432 45.0816 490.131 40.6272 487.83ZM51.9552 486.925C48.576 487.183 45.2736 487.468 41.9712 487.726C46.5024 490.079 51.072 492.406 55.68 494.734C59.0208 494.656 62.3616 494.578 65.7792 494.475C61.0944 491.967 56.5248 489.433 51.9552 486.925ZM687.245 415.662C690.547 415.196 693.85 414.731 697.19 414.24C698.611 409.87 699.917 405.293 701.222 400.742C698.15 401.621 695.04 402.475 691.968 403.328C690.394 407.491 688.896 411.68 687.245 415.662ZM676.262 417.213C679.565 416.748 682.867 416.282 686.17 415.817C687.782 411.887 689.318 407.75 690.854 403.638C687.782 404.491 684.672 405.396 681.6 406.224C679.834 409.922 678.106 413.671 676.262 417.213ZM665.318 418.739C668.621 418.273 671.885 417.834 675.187 417.368C676.992 413.852 678.72 410.18 680.486 406.534C677.414 407.387 674.342 408.189 671.27 409.017C669.274 412.275 667.315 415.61 665.318 418.739ZM654.374 420.264C657.638 419.825 660.902 419.359 664.166 418.894C666.163 415.791 668.083 412.533 670.042 409.327C666.97 410.154 663.898 410.982 660.826 411.809C658.675 414.653 656.525 417.524 654.374 420.264ZM643.43 421.79C646.656 421.35 649.882 420.911 653.107 420.445C655.258 417.756 657.37 414.938 659.482 412.145C656.448 412.947 653.414 413.723 650.342 414.498C648.077 416.955 645.773 419.437 643.43 421.79ZM632.563 423.264C635.75 422.824 638.938 422.385 642.086 421.945C644.39 419.644 646.618 417.265 648.883 414.886C645.85 415.662 642.854 416.463 639.821 417.213C637.44 419.256 635.021 421.299 632.563 423.264ZM621.85 424.738C624.922 424.324 628.032 423.91 631.104 423.471C633.485 421.583 635.827 419.618 638.208 417.653C635.251 418.403 632.333 419.127 629.414 419.851C626.88 421.506 624.346 423.16 621.85 424.738ZM611.29 426.16C614.208 425.772 617.126 425.384 620.045 424.97C622.464 423.471 624.845 421.919 627.264 420.394C624.461 421.092 621.619 421.79 618.816 422.488C616.32 423.703 613.824 424.945 611.29 426.16ZM601.306 427.505C603.878 427.168 606.451 426.806 609.024 426.47C611.251 425.41 613.517 424.324 615.744 423.238C613.21 423.859 610.714 424.453 608.218 425.048C605.914 425.876 603.61 426.703 601.306 427.505ZM593.434 428.539L598.003 427.944C599.462 427.427 600.96 426.936 602.419 426.418C599.424 427.117 596.429 427.841 593.434 428.539ZM14.6688 481.598C11.3664 482.063 8.064 482.529 4.8384 482.994C9.2544 484.985 13.7088 486.951 18.2016 488.942C21.504 488.683 24.8448 488.424 28.1856 488.166C23.6544 485.994 19.1232 483.796 14.6688 481.598ZM25.8048 480.047C22.464 480.512 19.1616 480.977 15.8976 481.417C20.3904 483.641 24.9984 485.839 29.568 488.062C32.9088 487.804 36.2112 487.545 39.5904 487.287C34.9824 484.882 30.336 482.477 25.8048 480.047ZM36.9024 478.521C33.5616 478.986 30.2592 479.426 26.9568 479.891C31.5648 482.322 36.2496 484.753 40.896 487.183C44.1984 486.925 47.5776 486.666 50.9568 486.382C46.272 483.77 41.5488 481.158 36.9024 478.521ZM681.677 428.306C685.21 428.229 688.781 428.125 692.352 428.048C693.926 423.729 695.501 419.411 696.96 414.912C693.619 415.377 690.278 415.869 686.976 416.334C685.248 420.42 683.443 424.35 681.677 428.306ZM670.003 428.616C673.536 428.513 677.069 428.435 680.64 428.332C682.406 424.427 684.173 420.523 685.862 416.463C682.522 416.929 679.181 417.42 675.878 417.886C673.997 421.557 672 425.074 670.003 428.616ZM658.406 428.953C661.939 428.849 665.472 428.746 669.005 428.642C670.963 425.151 672.922 421.661 674.803 418.041C671.462 418.506 668.16 418.972 664.858 419.437C662.746 422.695 660.557 425.798 658.406 428.953ZM646.81 429.289C650.304 429.185 653.837 429.082 657.331 428.978C659.482 425.875 661.594 422.798 663.706 419.592C660.403 420.058 657.062 420.523 653.76 420.988C651.494 423.807 649.152 426.522 646.81 429.289ZM635.251 429.651C638.746 429.547 642.202 429.418 645.696 429.315C648 426.625 650.266 423.936 652.531 421.144C649.229 421.609 645.965 422.049 642.662 422.488C640.243 424.945 637.747 427.298 635.251 429.651ZM623.77 430.039C627.187 429.909 630.643 429.806 634.061 429.702C636.48 427.375 638.938 425.074 641.357 422.695C638.093 423.135 634.829 423.6 631.565 424.04C628.992 426.082 626.381 428.048 623.77 430.039ZM612.326 430.426C615.706 430.297 619.085 430.194 622.464 430.064C624.998 428.125 627.571 426.212 630.067 424.221C626.842 424.66 623.654 425.1 620.467 425.513C617.779 427.194 615.053 428.797 612.326 430.426ZM601.075 430.84C604.339 430.711 607.603 430.607 610.906 430.478C613.517 428.927 616.128 427.349 618.739 425.746C615.629 426.16 612.518 426.6 609.408 427.013C606.605 428.332 603.84 429.573 601.075 430.84ZM590.054 431.28C593.126 431.15 596.198 431.047 599.309 430.918C601.92 429.728 604.493 428.539 607.104 427.349C604.147 427.737 601.19 428.125 598.272 428.539C595.546 429.444 592.819 430.349 590.054 431.28ZM579.648 431.693C582.336 431.59 585.024 431.461 587.75 431.357C590.131 430.556 592.512 429.754 594.893 428.953C592.32 429.289 589.709 429.651 587.136 429.987C584.678 430.556 582.182 431.125 579.648 431.693ZM571.814 432.004C573.274 431.952 574.771 431.874 576.23 431.823C577.613 431.512 578.995 431.202 580.378 430.892C577.459 431.28 574.656 431.642 571.814 432.004ZM10.8288 472.005C7.5264 472.677 4.2624 473.324 1.0368 473.996C5.6064 476.323 10.2528 478.624 14.9376 480.926C18.24 480.46 21.5424 479.995 24.8832 479.529C20.16 477.047 15.4368 474.539 10.8288 472.005ZM21.7344 469.859C18.432 470.505 15.1296 471.152 11.904 471.798C16.5888 474.332 21.312 476.866 26.0352 479.4C29.3376 478.935 32.64 478.495 36.0192 478.03C31.2192 475.315 26.4576 472.574 21.7344 469.859ZM675.994 440.485C679.757 440.769 683.52 441.054 687.322 441.338C688.973 437.227 690.547 432.935 692.122 428.642C688.55 428.72 684.979 428.823 681.408 428.901C679.642 432.831 677.875 436.736 675.994 440.485ZM663.744 439.606C667.469 439.864 671.232 440.149 674.995 440.407C676.838 436.684 678.605 432.831 680.371 428.927C676.8 429.03 673.229 429.108 669.658 429.211C667.738 432.728 665.779 436.244 663.744 439.606ZM651.494 438.778C655.219 439.037 658.944 439.27 662.707 439.528C664.704 436.193 666.662 432.728 668.621 429.263C665.05 429.366 661.517 429.47 657.946 429.573C655.834 432.676 653.683 435.805 651.494 438.778ZM639.36 437.977C643.046 438.209 646.771 438.468 650.496 438.727C652.685 435.779 654.797 432.702 656.909 429.625C653.376 429.728 649.805 429.832 646.272 429.935C644.006 432.624 641.702 435.365 639.36 437.977ZM627.187 437.253C630.874 437.46 634.56 437.666 638.285 437.899C640.627 435.313 642.893 432.624 645.197 429.935C641.664 430.039 638.131 430.168 634.598 430.271C632.141 432.65 629.683 435.003 627.187 437.253ZM615.168 436.555C618.778 436.761 622.464 436.994 626.112 437.201C628.57 434.977 631.027 432.65 633.446 430.349C629.952 430.452 626.419 430.582 622.963 430.685C620.352 432.65 617.779 434.641 615.168 436.555ZM603.149 435.908C606.758 436.089 610.33 436.27 613.978 436.477C616.55 434.615 619.123 432.65 621.658 430.711C618.163 430.84 614.746 430.969 611.29 431.073C608.563 432.702 605.875 434.357 603.149 435.908ZM591.283 435.313C594.778 435.469 598.31 435.65 601.843 435.831C604.531 434.305 607.181 432.702 609.83 431.125C606.451 431.254 603.034 431.357 599.654 431.487C596.851 432.805 594.086 434.098 591.283 435.313ZM579.571 434.77C582.95 434.926 586.33 435.081 589.747 435.236C592.474 434.046 595.162 432.805 597.85 431.564C594.547 431.693 591.245 431.823 587.981 431.952C585.178 432.909 582.374 433.865 579.571 434.77ZM568.09 434.305C571.277 434.434 574.464 434.564 577.69 434.693C580.339 433.84 583.027 432.935 585.677 432.055C582.566 432.185 579.456 432.314 576.384 432.443C573.619 433.064 570.854 433.684 568.09 434.305ZM557.53 433.865C560.218 433.969 562.982 434.098 565.67 434.202C568.09 433.659 570.509 433.116 572.928 432.573C570.24 432.676 567.552 432.805 564.864 432.909C562.406 433.219 559.949 433.555 557.53 433.865ZM549.35 433.607C550.81 433.659 552.23 433.684 553.69 433.736L557.606 433.219C554.842 433.348 552.077 433.478 549.35 433.607ZM669.926 452.224C673.882 452.845 677.914 453.543 681.907 454.189C683.674 450.207 685.402 446.122 687.091 441.959C683.29 441.674 679.488 441.364 675.725 441.105C673.805 444.881 671.885 448.578 669.926 452.224ZM657.024 450.207C660.979 450.828 664.973 451.423 668.928 452.069C670.886 448.449 672.806 444.777 674.688 441.002C670.886 440.718 667.123 440.459 663.36 440.2C661.286 443.614 659.174 446.923 657.024 450.207ZM644.198 448.268C648.115 448.863 652.109 449.457 656.064 450.078C658.176 446.82 660.288 443.536 662.362 440.149C658.598 439.89 654.835 439.632 651.072 439.373C648.806 442.398 646.502 445.32 644.198 448.268ZM631.488 446.354C635.366 446.923 639.322 447.518 643.238 448.113C645.504 445.217 647.808 442.295 650.035 439.295C646.31 439.037 642.509 438.778 638.822 438.546C636.403 441.209 633.946 443.795 631.488 446.354ZM618.778 444.57C622.694 445.113 626.573 445.63 630.49 446.199C632.909 443.665 635.366 441.105 637.747 438.468C633.984 438.235 630.259 438.028 626.534 437.822C623.962 440.123 621.35 442.347 618.778 444.57ZM606.182 442.812C609.984 443.329 613.901 443.898 617.741 444.415C620.314 442.217 622.886 440.019 625.421 437.744C621.734 437.537 618.01 437.304 614.362 437.098C611.635 439.063 608.909 440.924 606.182 442.812ZM593.626 441.209C597.466 441.7 601.267 442.166 605.107 442.683C607.795 440.821 610.483 438.959 613.171 437.046C609.485 436.839 605.837 436.684 602.15 436.477C599.309 438.08 596.467 439.632 593.626 441.209ZM581.222 439.632C584.947 440.097 588.71 440.588 592.435 441.054C595.238 439.528 598.003 437.977 600.806 436.425C597.197 436.244 593.587 436.063 589.978 435.882C587.098 437.149 584.141 438.365 581.222 439.632ZM568.934 438.132C572.582 438.571 576.23 439.011 579.917 439.451C582.758 438.235 585.638 437.02 588.48 435.779C584.909 435.624 581.414 435.469 577.882 435.313C574.886 436.27 571.93 437.201 568.934 438.132ZM556.838 436.761C560.333 437.149 563.866 437.563 567.36 437.977C570.24 437.072 573.082 436.167 575.962 435.262C572.544 435.107 569.126 434.977 565.747 434.848C562.79 435.469 559.834 436.115 556.838 436.761ZM545.28 435.443C548.467 435.779 551.731 436.167 554.918 436.529C557.722 435.934 560.486 435.313 563.29 434.719C560.102 434.589 556.915 434.46 553.766 434.357C550.925 434.719 548.122 435.081 545.28 435.443ZM534.182 434.305C536.986 434.589 539.75 434.874 542.592 435.158L549.926 434.227C547.123 434.124 544.32 434.046 541.555 433.943C539.059 434.072 536.64 434.202 534.182 434.305ZM526.195 433.503C527.501 433.633 528.806 433.762 530.112 433.891L533.952 433.71C531.341 433.633 528.768 433.555 526.195 433.503ZM663.59 463.524C667.699 464.48 671.923 465.541 676.109 466.549C677.99 462.696 679.834 458.792 681.638 454.784C677.645 454.138 673.613 453.439 669.619 452.819C667.661 456.465 665.626 460.033 663.59 463.524ZM650.15 460.421C654.298 461.378 658.445 462.308 662.63 463.291C664.666 459.826 666.662 456.284 668.621 452.638C664.627 451.991 660.634 451.371 656.64 450.776C654.528 454.06 652.378 457.292 650.15 460.421ZM636.826 457.396C640.934 458.301 645.082 459.257 649.229 460.214C651.418 457.085 653.606 453.879 655.718 450.621C651.725 450 647.77 449.406 643.776 448.811C641.472 451.733 639.168 454.603 636.826 457.396ZM623.578 454.474C627.648 455.353 631.757 456.284 635.866 457.189C638.208 454.422 640.512 451.552 642.816 448.656C638.861 448.061 634.867 447.466 630.95 446.898C628.531 449.483 626.074 452.017 623.578 454.474ZM610.368 451.681C614.438 452.534 618.509 453.388 622.618 454.267C625.114 451.836 627.533 449.302 629.99 446.768C626.035 446.199 622.118 445.656 618.163 445.113C615.552 447.337 612.979 449.561 610.368 451.681ZM597.312 448.914C601.267 449.716 605.376 450.621 609.37 451.474C611.981 449.354 614.554 447.182 617.126 444.984C613.248 444.441 609.293 443.872 605.453 443.355C602.765 445.217 600.038 447.104 597.312 448.914ZM584.256 446.354C588.288 447.156 592.243 447.906 596.314 448.733C599.002 446.949 601.69 445.087 604.378 443.226C600.461 442.709 596.621 442.243 592.704 441.752C589.901 443.277 587.098 444.855 584.256 446.354ZM571.392 443.82C575.27 444.57 579.226 445.346 583.181 446.122C585.984 444.648 588.787 443.096 591.552 441.545C587.75 441.054 583.91 440.562 580.109 440.097C577.19 441.338 574.31 442.605 571.392 443.82ZM558.605 441.416C562.445 442.14 566.323 442.838 570.202 443.588C573.082 442.398 575.962 441.183 578.803 439.942C575.002 439.476 571.277 439.037 567.514 438.597C564.557 439.554 561.562 440.511 558.605 441.416ZM545.894 439.114C549.658 439.787 553.382 440.459 557.184 441.157C560.102 440.278 563.021 439.321 565.939 438.416C562.253 437.977 558.605 437.563 554.957 437.149C551.962 437.822 548.928 438.494 545.894 439.114ZM533.606 436.942C537.139 437.537 540.71 438.209 544.282 438.83C547.2 438.209 550.118 437.563 553.037 436.942C549.542 436.555 546.048 436.167 542.592 435.779C539.597 436.167 536.602 436.555 533.606 436.942ZM521.434 434.926C524.774 435.469 528.115 436.012 531.494 436.58C534.298 436.218 537.101 435.856 539.904 435.494C536.602 435.158 533.338 434.822 530.074 434.486C527.194 434.641 524.314 434.77 521.434 434.926ZM510.49 433.116C513.139 433.529 515.866 434.021 518.554 434.46C521.011 434.331 523.507 434.227 526.003 434.098C523.43 433.84 520.858 433.555 518.285 433.322C515.712 433.245 513.101 433.167 510.49 433.116ZM503.078 431.952C504.115 432.107 505.152 432.262 506.189 432.417C507.11 432.443 508.07 432.469 509.03 432.495C507.034 432.288 505.075 432.107 503.078 431.952ZM656.986 474.384C661.286 475.677 665.702 477.099 670.08 478.443C672.038 474.798 673.92 470.945 675.802 467.118C671.616 466.11 667.392 465.049 663.245 464.093C661.21 467.583 659.136 471.048 656.986 474.384ZM643.008 470.273C647.386 471.565 651.686 472.781 656.102 474.099C658.214 470.79 660.288 467.325 662.323 463.86C658.099 462.877 653.952 461.946 649.766 460.99C647.539 464.144 645.274 467.247 643.008 470.273ZM629.146 466.213C633.408 467.454 637.747 468.747 642.086 470.014C644.352 467.015 646.618 463.912 648.806 460.783C644.659 459.826 640.474 458.869 636.365 457.964C633.984 460.757 631.565 463.498 629.146 466.213ZM615.36 462.283C619.622 463.472 623.923 464.687 628.224 465.929C630.643 463.239 633.024 460.524 635.405 457.732C631.258 456.801 627.11 455.896 623.002 454.991C620.506 457.473 617.933 459.904 615.36 462.283ZM601.651 458.507C605.914 459.671 610.138 460.835 614.438 462.05C617.011 459.671 619.546 457.266 622.042 454.81C617.894 453.905 613.824 453.052 609.715 452.198C607.066 454.344 604.339 456.413 601.651 458.507ZM588.134 454.784C592.282 455.896 596.544 457.111 600.73 458.249C603.418 456.18 606.067 454.112 608.717 451.991C604.685 451.138 600.576 450.233 596.544 449.406C593.779 451.242 590.938 453 588.134 454.784ZM574.579 451.267C578.765 452.353 582.912 453.388 587.174 454.525C589.978 452.767 592.781 451.009 595.546 449.199C591.437 448.371 587.443 447.596 583.373 446.794C580.454 448.32 577.498 449.794 574.579 451.267ZM561.293 447.828C565.363 448.863 569.472 449.949 573.581 451.009C576.461 449.535 579.379 448.087 582.259 446.587C578.266 445.812 574.272 444.984 570.317 444.234C567.322 445.475 564.288 446.639 561.293 447.828ZM548.006 444.544C552.077 445.527 556.109 446.51 560.179 447.544C563.136 446.355 566.131 445.191 569.088 444.001C565.094 443.252 561.178 442.528 557.222 441.804C554.189 442.734 551.117 443.639 548.006 444.544ZM534.912 441.416C538.829 442.347 542.784 443.303 546.778 444.26C549.811 443.355 552.845 442.476 555.878 441.571C552 440.873 548.16 440.149 544.32 439.476C541.171 440.123 538.061 440.743 534.912 441.416ZM522.163 438.365C525.926 439.218 529.728 440.149 533.53 441.054C536.602 440.433 539.635 439.787 542.707 439.166C538.982 438.494 535.219 437.847 531.533 437.201C528.346 437.589 525.274 437.977 522.163 438.365ZM509.376 435.52C513.062 436.348 516.672 437.123 520.397 437.977C523.392 437.589 526.387 437.227 529.382 436.839C525.734 436.218 522.125 435.65 518.515 435.055C515.443 435.21 512.41 435.365 509.376 435.52ZM497.357 432.857C500.582 433.555 503.885 434.305 507.149 435.029C509.99 434.874 512.832 434.745 515.674 434.589C512.486 434.072 509.222 433.503 506.074 433.012C503.117 432.96 500.237 432.909 497.357 432.857ZM485.914 430.478C488.755 431.073 491.558 431.616 494.4 432.211C496.742 432.236 499.046 432.288 501.389 432.314C498.432 431.849 495.514 431.435 492.595 430.995C490.368 430.814 488.141 430.659 485.914 430.478ZM477.427 428.746C478.656 429.004 479.885 429.237 481.075 429.496C481.997 429.573 482.918 429.625 483.84 429.702C481.728 429.392 479.539 429.03 477.427 428.746ZM649.958 484.804C654.451 486.433 658.982 488.114 663.514 489.795C665.626 486.252 667.738 482.736 669.773 479.012C665.395 477.642 660.941 476.246 656.64 474.927C654.451 478.34 652.224 481.572 649.958 484.804ZM635.52 479.71C640.051 481.314 644.506 482.839 649.037 484.494C651.302 481.262 653.53 478.056 655.718 474.668C651.302 473.324 646.963 472.108 642.586 470.816C640.282 473.867 637.901 476.789 635.52 479.71ZM621.235 474.668C625.651 476.194 630.144 477.823 634.598 479.4C636.979 476.504 639.36 473.582 641.664 470.557C637.325 469.264 632.947 467.971 628.646 466.73C626.227 469.445 623.731 472.083 621.235 474.668ZM607.027 469.807C611.482 471.307 615.898 472.781 620.352 474.332C622.848 471.746 625.306 469.135 627.763 466.446C623.424 465.205 619.123 463.989 614.822 462.774C612.25 465.179 609.638 467.532 607.027 469.807ZM592.896 465.101C597.274 466.549 601.69 468.023 606.106 469.523C608.717 467.247 611.328 464.92 613.901 462.541C609.6 461.326 605.299 460.162 601.037 458.999C598.349 461.067 595.622 463.11 592.896 465.101ZM578.957 460.498C583.258 461.895 587.635 463.369 592.013 464.817C594.739 462.851 597.427 460.809 600.115 458.74C595.891 457.577 591.59 456.361 587.405 455.249C584.602 457.008 581.798 458.792 578.957 460.498ZM565.018 456.103C569.357 457.473 573.658 458.792 578.035 460.214C580.838 458.533 583.642 456.775 586.445 455.017C582.144 453.879 577.958 452.819 573.734 451.733C570.816 453.181 567.936 454.681 565.018 456.103ZM551.309 451.785C555.494 453.077 559.795 454.448 564.058 455.792C566.976 454.396 569.856 452.922 572.736 451.448C568.589 450.362 564.403 449.251 560.294 448.216C557.299 449.432 554.304 450.621 551.309 451.785ZM537.6 447.647C541.824 448.914 546.01 450.13 550.272 451.448C553.229 450.311 556.224 449.121 559.181 447.932C554.995 446.872 550.925 445.915 546.778 444.906C543.744 445.837 540.672 446.768 537.6 447.647ZM524.083 443.639C528.192 444.829 532.339 446.07 536.486 447.311C539.52 446.432 542.554 445.527 545.587 444.622C541.555 443.639 537.485 442.657 533.491 441.7C530.342 442.347 527.194 443.019 524.083 443.639ZM510.797 439.813C514.752 440.924 518.784 442.114 522.778 443.278C525.85 442.657 528.96 442.01 532.032 441.364C528.115 440.433 524.16 439.502 520.282 438.623C517.133 439.011 513.946 439.399 510.797 439.813ZM497.51 436.141C501.427 437.227 505.306 438.261 509.261 439.373C512.333 438.985 515.443 438.597 518.515 438.209C514.637 437.33 510.835 436.503 507.034 435.65C503.846 435.805 500.659 435.986 497.51 436.141ZM484.877 432.676C488.41 433.633 492.058 434.667 495.667 435.65C498.701 435.494 501.773 435.339 504.806 435.184C501.312 434.408 497.741 433.581 494.246 432.831C491.098 432.754 487.987 432.702 484.877 432.676ZM472.358 429.444C475.776 430.323 479.078 431.125 482.534 432.03C485.376 432.055 488.218 432.107 491.059 432.159C487.642 431.435 484.262 430.788 480.883 430.09C478.042 429.858 475.2 429.651 472.358 429.444ZM461.069 426.574C463.68 427.22 466.291 427.892 468.902 428.565C471.283 428.746 473.664 428.927 476.045 429.108C473.472 428.591 470.899 428.048 468.365 427.53C465.946 427.22 463.526 426.884 461.069 426.574ZM454.349 424.841C454.886 424.97 455.424 425.126 455.962 425.255C456.691 425.358 457.421 425.436 458.112 425.539C456.845 425.307 455.616 425.1 454.349 424.841ZM642.816 494.889C647.501 496.828 652.186 498.793 656.909 500.784C659.059 497.474 661.094 493.88 663.168 490.364C658.598 488.683 654.067 486.976 649.574 485.347C647.347 488.58 645.12 491.838 642.816 494.889ZM627.878 488.812C632.563 490.726 637.171 492.562 641.894 494.527C644.198 491.501 646.387 488.243 648.614 485.037C644.045 483.382 639.552 481.857 635.021 480.228C632.678 483.149 630.336 486.046 627.878 488.812ZM613.171 482.813C617.741 484.623 622.426 486.589 627.034 488.45C629.453 485.709 631.834 482.813 634.176 479.917C629.683 478.34 625.19 476.711 620.736 475.16C618.24 477.771 615.706 480.331 613.171 482.813ZM598.464 477.073C603.072 478.883 607.642 480.615 612.326 482.477C614.861 480.021 617.357 477.461 619.853 474.875C615.322 473.324 610.906 471.824 606.451 470.324C603.802 472.6 601.152 474.875 598.464 477.073ZM583.91 471.436C588.442 473.169 593.011 474.953 597.581 476.737C600.269 474.539 602.88 472.289 605.53 470.014C601.075 468.514 596.659 467.04 592.243 465.567C589.478 467.558 586.714 469.523 583.91 471.436ZM569.549 465.954C574.003 467.635 578.573 469.368 583.066 471.1C585.83 469.187 588.595 467.247 591.36 465.256C586.982 463.808 582.566 462.308 578.227 460.912C575.347 462.645 572.429 464.3 569.549 465.954ZM555.187 460.705C559.68 462.36 564.134 463.938 568.666 465.644C571.546 463.989 574.426 462.334 577.306 460.654C572.89 459.231 568.55 457.887 564.173 456.516C561.178 457.939 558.182 459.309 555.187 460.705ZM541.094 455.534C545.434 457.085 549.888 458.766 554.266 460.369C557.222 458.999 560.218 457.628 563.174 456.206C558.874 454.862 554.534 453.465 550.31 452.147C547.238 453.31 544.166 454.422 541.094 455.534ZM527.002 450.621C531.379 452.147 535.718 453.62 540.134 455.198C543.168 454.086 546.24 452.974 549.274 451.81C544.934 450.492 540.71 449.251 536.41 447.958C533.299 448.863 530.15 449.742 527.002 450.621ZM513.139 445.812C517.402 447.26 521.664 448.733 525.965 450.233C529.075 449.354 532.186 448.501 535.334 447.622C531.11 446.355 526.925 445.113 522.778 443.924C519.514 444.57 516.326 445.191 513.139 445.812ZM499.507 441.209C503.616 442.579 507.802 444.001 511.949 445.424C515.098 444.803 518.285 444.183 521.434 443.562C517.325 442.372 513.216 441.183 509.146 440.019C505.92 440.407 502.733 440.795 499.507 441.209ZM485.837 436.787C489.946 438.106 493.978 439.373 498.125 440.743C501.274 440.356 504.422 439.968 507.61 439.58C503.539 438.442 499.546 437.356 495.514 436.244C492.25 436.425 489.024 436.606 485.837 436.787ZM472.666 432.547C476.467 433.736 480.346 435.029 484.186 436.27C487.334 436.089 490.445 435.908 493.594 435.753C489.83 434.719 485.99 433.633 482.304 432.65C479.078 432.598 475.891 432.573 472.666 432.547ZM459.494 428.513C463.258 429.651 466.944 430.737 470.784 431.926C473.818 431.952 476.813 431.952 479.846 432.004C476.083 431.021 472.397 430.116 468.672 429.159C465.6 428.927 462.528 428.72 459.494 428.513ZM446.899 424.712C450.202 425.694 453.581 426.703 456.922 427.711C459.686 427.892 462.451 428.048 465.216 428.254C462.029 427.453 458.803 426.6 455.654 425.824C452.736 425.462 449.779 425.074 446.899 424.712ZM435.955 421.454C438.451 422.178 441.024 422.979 443.52 423.703C445.862 423.988 448.166 424.246 450.547 424.531C447.821 423.859 445.171 423.29 442.445 422.643C440.294 422.255 438.067 421.842 435.955 421.454ZM428.89 419.515C429.274 419.618 429.658 419.721 430.042 419.825C430.31 419.877 430.541 419.902 430.81 419.954C430.157 419.799 429.542 419.644 428.89 419.515ZM635.059 504.404C639.898 506.628 644.659 508.826 649.536 511.127C651.878 507.895 654.221 504.74 656.486 501.353C651.763 499.362 647.04 497.397 642.394 495.458C640.013 498.535 637.517 501.431 635.059 504.404ZM619.814 497.449C624.614 499.621 629.376 501.767 634.214 504.016C636.672 501.069 639.168 498.198 641.549 495.096C636.826 493.13 632.179 491.269 627.456 489.355C624.922 492.148 622.349 494.759 619.814 497.449ZM604.723 490.571C609.37 492.639 614.208 494.889 618.931 497.035C621.504 494.372 624.077 491.76 626.573 488.967C621.926 487.08 617.242 485.115 612.634 483.305C610.061 485.813 607.373 488.192 604.723 490.571ZM589.67 484.003C594.432 486.097 599.078 488.037 603.917 490.183C606.566 487.804 609.216 485.451 611.827 482.943C607.142 481.081 602.573 479.348 597.888 477.513C595.162 479.762 592.397 481.883 589.67 484.003ZM574.81 477.538C579.456 479.529 584.141 481.572 588.826 483.641C591.59 481.52 594.317 479.426 597.043 477.202C592.435 475.392 587.827 473.634 583.296 471.876C580.454 473.815 577.651 475.703 574.81 477.538ZM560.064 471.255C564.672 473.194 569.318 475.185 573.965 477.176C576.806 475.341 579.61 473.479 582.413 471.565C577.843 469.833 573.312 468.075 568.781 466.394C565.901 468.049 562.982 469.678 560.064 471.255ZM545.395 465.205C550.003 467.118 554.573 468.954 559.219 470.919C562.138 469.342 565.018 467.713 567.936 466.084C563.366 464.377 558.874 462.774 554.342 461.119C551.347 462.49 548.39 463.86 545.395 465.205ZM530.957 459.257C535.411 461.041 539.981 462.981 544.474 464.842C547.469 463.524 550.426 462.153 553.421 460.757C549.005 459.128 544.512 457.447 540.134 455.896C537.101 457.008 534.029 458.171 530.957 459.257ZM516.518 453.543C521.05 455.327 525.504 457.034 530.074 458.869C533.107 457.783 536.179 456.672 539.213 455.534C534.72 453.931 530.342 452.457 525.926 450.905C522.778 451.81 519.629 452.69 516.518 453.543ZM502.272 447.984C506.65 449.664 511.104 451.423 515.52 453.155C518.63 452.328 521.741 451.423 524.851 450.569C520.512 449.044 516.173 447.544 511.872 446.096C508.646 446.717 505.459 447.363 502.272 447.984ZM488.256 442.605C492.518 444.208 496.858 445.889 501.197 447.57C504.346 446.949 507.533 446.329 510.72 445.682C506.458 444.234 502.195 442.786 498.01 441.39C494.707 441.804 491.482 442.191 488.256 442.605ZM474.202 437.434C478.464 439.011 482.688 440.511 486.989 442.14C490.176 441.752 493.402 441.338 496.589 440.95C492.365 439.554 488.218 438.235 484.032 436.891C480.73 437.072 477.466 437.253 474.202 437.434ZM460.646 432.469C464.64 433.891 468.71 435.443 472.742 436.917C475.93 436.736 479.155 436.555 482.381 436.374C478.426 435.107 474.394 433.762 470.515 432.547C467.213 432.495 463.949 432.469 460.646 432.469ZM447.091 427.711C451.085 429.108 454.963 430.401 458.995 431.849C462.182 431.849 465.37 431.874 468.557 431.9C464.525 430.633 460.608 429.521 456.614 428.306C453.427 428.125 450.24 427.918 447.091 427.711ZM433.958 423.212C437.568 424.427 441.216 425.694 444.864 426.961C447.898 427.142 450.97 427.349 454.003 427.53C450.394 426.444 446.746 425.333 443.174 424.272C440.102 423.936 437.03 423.574 433.958 423.212ZM421.862 419.101C424.934 420.109 428.122 421.221 431.232 422.281C434.074 422.617 436.954 422.954 439.834 423.29C436.416 422.281 433.075 421.35 429.658 420.394C427.085 419.954 424.474 419.54 421.862 419.101ZM410.035 415.326C412.608 416.153 415.142 416.929 417.754 417.782C419.827 418.118 421.939 418.48 424.013 418.816C421.248 418.041 418.522 417.291 415.795 416.541C413.837 416.127 411.955 415.739 410.035 415.326ZM402.432 412.895C402.97 413.05 403.469 413.231 404.006 413.386C404.698 413.516 405.35 413.671 406.042 413.826C404.813 413.516 403.622 413.231 402.432 412.895ZM225.754 566.824C228.48 568.091 231.206 569.41 233.933 570.651C393.101 628.752 555.878 640.259 649.19 511.67C644.275 509.369 639.475 507.171 634.637 504.947C536.41 622.883 378.662 616.367 225.754 566.824ZM210.394 559.48C213.696 561.084 216.96 562.687 220.262 564.238C374.554 615.306 534.49 623.374 633.715 504.508C628.877 502.258 624.077 500.112 619.277 497.914C514.829 606.541 359.04 602.714 210.394 559.48ZM195.533 552.137C199.219 553.999 202.944 555.809 206.63 557.619C356.083 601.809 513.254 606.618 618.432 497.552C613.67 495.38 608.87 493.13 604.186 491.062C493.555 590.121 339.84 588.984 195.533 552.137ZM180.787 544.587C184.666 546.603 188.582 548.646 192.461 550.637C337.344 588.208 492.096 590.07 603.302 490.7C598.464 488.554 593.779 486.589 589.018 484.494C472.32 573.754 320.717 575.124 180.787 544.587ZM165.926 536.803C170.15 539.053 174.336 541.251 178.598 543.449C318.835 574.452 471.091 573.547 588.211 484.106C583.488 482.038 578.765 479.969 574.118 477.978C451.238 557.489 301.594 561.161 165.926 536.803ZM151.104 528.814C155.443 531.167 159.782 533.52 164.122 535.847C299.981 560.566 450.048 557.205 573.274 477.642C568.589 475.625 563.904 473.634 559.296 471.695C430.272 541.303 282.547 547.146 151.104 528.814ZM136.358 520.591C140.736 523.047 145.114 525.53 149.568 527.96C281.126 546.552 429.197 540.992 558.49 471.333C553.805 469.368 549.197 467.48 544.589 465.592C409.421 525.219 263.616 533.028 136.358 520.591ZM121.382 512.084C125.914 514.67 130.445 517.255 135.014 519.815C262.31 532.459 408.384 524.832 543.667 465.179C539.136 463.317 534.528 461.352 530.035 459.542C388.8 509.291 244.646 518.858 121.382 512.084ZM106.291 503.344C110.899 506.059 115.546 508.748 120.192 511.412C243.456 518.29 387.725 508.878 529.114 459.206C524.467 457.344 520.013 455.637 515.405 453.827C368.141 493.492 225.6 504.585 106.291 503.344ZM91.1232 494.294C95.808 497.112 100.493 499.931 105.216 502.723C224.448 504.042 367.066 493.053 514.406 453.439C509.914 451.681 505.459 449.923 501.043 448.216C347.712 477.823 206.63 490.209 91.1232 494.294ZM75.8016 484.985C80.5632 487.907 85.3632 490.829 90.1632 493.725C205.555 489.691 346.598 477.357 499.968 447.803C495.552 446.096 491.174 444.415 486.797 442.786C327.36 462.308 187.622 475.78 75.8016 484.985ZM60.3264 475.418C65.1648 478.443 70.0416 481.443 74.9184 484.442C186.586 475.263 326.208 461.817 485.53 442.295C481.152 440.64 476.851 439.089 472.512 437.511C307.085 446.975 168.538 461.274 60.3264 475.418ZM44.7744 465.567C49.6512 468.695 54.5664 471.798 59.52 474.901C167.578 460.783 305.894 446.458 471.091 436.994C466.982 435.494 462.797 433.891 458.726 432.443C287.155 431.797 149.606 446.717 44.7744 465.567ZM29.1072 455.405C34.0608 458.611 39.0144 461.843 44.0448 465.049C148.646 446.199 285.926 431.254 457.075 431.823C452.851 430.323 448.781 429.004 444.634 427.556C267.149 416.825 130.522 432.081 29.1072 455.405ZM13.2864 445.01C18.2784 448.32 23.3088 451.629 28.3776 454.939C129.562 431.616 265.69 416.308 442.406 426.806C438.566 425.488 434.688 424.143 430.886 422.85C247.45 402.035 111.552 417.42 13.2864 445.01ZM31.9104 467.299C26.9568 464.274 22.08 461.248 17.2416 458.223C13.9392 459.025 10.6752 459.852 7.4496 460.654C12.2496 463.498 17.088 466.342 22.0032 469.187C25.2672 468.54 28.5696 467.92 31.9104 467.299ZM47.1936 476.53C42.3168 473.608 37.4784 470.686 32.6784 467.764C29.3376 468.385 26.0736 469.031 22.8096 469.652C27.5712 472.393 32.3328 475.134 37.1712 477.875C40.4736 477.409 43.8528 476.97 47.1936 476.53ZM62.3616 485.477C57.5616 482.658 52.8 479.866 48.0768 477.047C44.736 477.487 41.3952 477.952 38.0928 478.392C42.7776 481.029 47.5392 483.667 52.3008 486.304C55.6032 486.02 58.9824 485.735 62.3616 485.477ZM77.2992 494.139C72.576 491.45 67.9296 488.735 63.2832 486.02C59.9424 486.304 56.5632 486.563 53.2608 486.821C57.8688 489.355 62.5152 491.889 67.2 494.423C70.5408 494.32 73.8816 494.242 77.2992 494.139ZM92.0064 502.517C87.3984 499.931 82.8288 497.319 78.2976 494.708C74.9184 494.811 71.5776 494.915 68.2368 494.992C72.768 497.423 77.2992 499.853 81.8688 502.284C85.248 502.362 88.6272 502.439 92.0064 502.517ZM106.714 510.61C102.182 508.128 97.6512 505.645 93.1584 503.137C89.7792 503.086 86.4384 503.008 83.0976 502.93C87.552 505.258 92.0064 507.585 96.4992 509.886C99.8784 510.119 103.296 510.377 106.714 510.61ZM121.114 518.367C116.736 516.014 112.32 513.661 107.981 511.308C104.563 511.075 101.222 510.843 97.8816 510.584C102.259 512.808 106.637 515.006 111.053 517.204C114.394 517.617 117.734 518.005 121.114 518.367ZM135.13 525.814C130.944 523.616 126.758 521.393 122.611 519.169C119.27 518.807 115.968 518.419 112.666 518.005C116.89 520.1 121.114 522.194 125.376 524.263C128.602 524.806 131.866 525.297 135.13 525.814ZM149.184 532.977C145.114 530.908 141.005 528.839 136.973 526.745C133.747 526.254 130.56 525.762 127.373 525.245C131.405 527.185 135.398 529.124 139.469 531.037C142.656 531.684 145.92 532.33 149.184 532.977ZM162.816 539.777C158.938 537.864 155.098 535.95 151.258 534.011C148.147 533.39 145.037 532.821 141.926 532.175C145.766 533.985 149.645 535.717 153.485 537.476C156.595 538.277 159.706 539.053 162.816 539.777ZM175.987 546.216C172.454 544.535 168.96 542.802 165.466 541.07C162.586 540.398 159.706 539.725 156.826 539.027C160.282 540.579 163.699 542.13 167.155 543.656C170.112 544.509 173.069 545.414 175.987 546.216ZM188.544 552.111C185.472 550.689 182.4 549.293 179.366 547.845C176.909 547.172 174.49 546.5 172.07 545.802C174.95 547.069 177.83 548.336 180.71 549.577C183.283 550.404 185.894 551.258 188.544 552.111ZM198.682 556.817C196.992 556.041 195.264 555.214 193.574 554.438C191.77 553.869 189.965 553.3 188.16 552.706C190.349 553.637 192.538 554.516 194.726 555.421C196.07 555.886 197.376 556.352 198.682 556.817ZM665.549 519.479C581.146 653.239 423.667 643.93 265.037 584.433C432.806 655.515 599.578 673.149 680.294 526.512C675.341 524.108 670.464 521.832 665.549 519.479ZM672.499 508.154C670.387 511.877 668.16 515.368 665.933 518.91C670.848 521.237 675.686 523.539 680.64 525.918C682.714 522.116 684.787 518.264 686.784 514.256C681.946 512.161 677.261 510.196 672.499 508.154ZM678.758 496.156C676.8 500.009 674.918 503.939 672.845 507.585C677.606 509.627 682.253 511.567 687.053 513.661C688.973 509.705 690.739 505.542 692.544 501.353C687.898 499.595 683.328 497.888 678.758 496.156ZM684.902 483.718C683.021 487.804 681.024 491.657 679.066 495.561C683.635 497.293 688.205 498.974 692.813 500.732C694.618 496.518 696.499 492.381 698.227 487.959C693.773 486.537 689.318 485.115 684.902 483.718ZM690.394 470.635C688.666 474.849 686.976 479.09 685.171 483.124C689.587 484.52 694.003 485.916 698.458 487.338C700.109 483.02 701.606 478.392 703.104 473.841C698.842 472.781 694.579 471.695 690.394 470.635ZM695.654 457.085C694.042 461.533 692.352 465.825 690.624 470.066C694.81 471.1 699.072 472.186 703.258 473.246C704.794 468.644 706.33 464.015 707.712 459.206C703.718 458.507 699.648 457.758 695.654 457.085ZM700.454 442.993C698.957 447.596 697.421 452.095 695.846 456.491C699.84 457.163 703.91 457.913 707.904 458.611C709.286 453.853 710.63 448.94 711.898 443.95C708.096 443.639 704.256 443.303 700.454 442.993ZM704.87 428.358C703.526 433.116 702.144 437.847 700.685 442.398C704.448 442.709 708.288 443.045 712.051 443.355C713.318 438.416 714.47 433.297 715.584 428.125C712.013 428.203 708.403 428.28 704.87 428.358ZM709.018 413.18C707.75 418.17 706.368 422.954 705.024 427.763C708.595 427.686 712.166 427.608 715.738 427.53C716.851 422.333 718.003 417.162 719.04 411.732C715.699 412.197 712.358 412.688 709.018 413.18ZM712.55 397.484C711.475 402.552 710.4 407.672 709.21 412.507C712.512 412.042 715.853 411.551 719.155 411.059C720.115 405.81 720.96 400.277 721.766 394.769C718.694 395.7 715.622 396.605 712.55 397.484ZM716.045 381.142C715.008 386.521 713.818 391.589 712.704 396.76C715.776 395.881 718.848 394.976 721.92 394.097C722.765 388.486 723.725 383.03 724.493 377.212C721.651 378.531 718.848 379.849 716.045 381.142ZM718.733 364.49C717.888 369.817 717.12 375.247 716.198 380.341C719.002 379.048 721.805 377.729 724.57 376.436C725.261 370.929 725.76 365.085 726.298 359.319C723.763 361.077 721.267 362.784 718.733 364.49ZM721.382 347.088C720.614 352.699 719.731 358.103 718.886 363.533C721.382 361.827 723.917 360.146 726.413 358.414C726.989 352.544 727.642 346.804 728.102 340.727C725.875 342.899 723.648 344.968 721.382 347.088ZM723.379 329.453C722.803 334.987 722.227 340.572 721.536 345.899C723.533 344.011 725.568 342.149 727.526 340.184L727.565 340.158L727.603 340.133L728.141 339.771C728.563 334.082 728.832 328.161 729.139 322.265L728.294 323.067C726.682 325.265 725.03 327.333 723.379 329.453ZM725.261 311.017C724.762 316.758 724.186 322.343 723.571 327.902C724.877 326.221 726.221 324.541 727.488 322.782V322.756L727.526 322.731C728.102 322.188 728.64 321.67 729.178 321.127C729.485 315.206 729.83 309.362 730.022 303.234C729.446 304.01 728.87 304.786 728.294 305.561C727.334 307.449 726.298 309.233 725.261 311.017ZM726.528 292.477C726.182 298.063 725.837 303.674 725.376 309.078C726.067 307.863 726.797 306.647 727.45 305.38V305.354V305.329C728.333 304.165 729.178 303.027 730.022 301.864C730.214 296.149 730.253 290.202 730.33 284.281L728.294 288.108C727.757 289.607 727.142 291.029 726.528 292.477ZM727.603 273.136C727.373 278.747 727.066 284.281 726.72 289.737C726.95 289.142 727.219 288.573 727.45 287.978V287.952C728.448 286.117 729.408 284.281 730.368 282.471C730.445 276.575 730.56 270.757 730.522 264.733C729.792 266.724 729.062 268.715 728.294 270.706C728.102 271.533 727.872 272.335 727.603 273.136ZM728.218 253.95C728.064 259.277 727.949 264.629 727.718 269.826C728.64 267.318 729.6 264.81 730.522 262.302C730.483 256.898 730.33 251.313 730.176 245.727L728.333 253.2C728.294 253.459 728.256 253.691 728.218 253.95ZM728.525 234.454C728.525 239.573 728.448 244.564 728.333 249.503L730.099 242.263C729.946 236.807 729.907 231.558 729.715 226.05L728.525 234.454ZM728.448 216.819C728.448 220.646 728.525 224.55 728.525 228.325L729.523 221.396C729.37 217.595 729.101 213.638 728.909 209.708L728.448 216.819ZM728.371 200.839C728.371 201.537 728.371 202.184 728.371 202.882L728.448 201.744C728.41 201.201 728.41 200.658 728.371 200.115V200.839ZM727.642 234.428C727.642 233.859 727.642 233.264 727.642 232.695C727.603 233.626 727.565 234.557 727.488 235.488L727.642 234.428ZM727.296 253.924C727.411 249.787 727.603 245.805 727.68 241.59C727.411 244.15 727.066 246.581 726.797 249.141C726.566 252.89 726.336 256.562 726.067 260.208C726.49 258.113 726.912 256.07 727.296 253.924ZM726.72 273.084C726.912 268.637 727.027 264.009 727.142 259.432C726.566 262.586 725.914 265.638 725.299 268.74C724.915 273.136 724.531 277.61 724.109 281.954C724.992 279.006 725.875 276.11 726.72 273.084ZM725.645 292.4C725.99 287.151 726.336 281.979 726.605 276.601C725.683 279.937 724.685 283.195 723.725 286.453C723.187 291.469 722.573 296.33 721.997 301.217C723.226 298.295 724.454 295.399 725.645 292.4ZM724.339 310.914C724.8 305.794 725.107 300.442 725.453 295.141C724.186 298.321 722.88 301.45 721.574 304.579C720.96 309.543 720.346 314.482 719.654 319.266C721.19 316.499 722.803 313.732 724.339 310.914ZM722.496 329.298C723.072 323.842 723.725 318.464 724.224 312.853C722.611 315.749 720.998 318.619 719.347 321.464C718.541 326.661 717.658 331.651 716.774 336.719C718.694 334.289 720.576 331.807 722.496 329.298ZM720.499 346.881C721.19 341.71 721.728 336.228 722.304 330.85C720.346 333.384 718.426 335.944 716.467 338.452C715.622 343.416 714.778 348.433 713.818 353.216C716.045 351.148 718.272 349.002 720.499 346.881ZM717.811 364.257C718.656 358.905 719.578 353.63 720.346 348.097C718.08 350.243 715.853 352.415 713.587 354.535C712.55 359.629 711.36 364.49 710.246 369.429C712.781 367.696 715.315 365.964 717.811 364.257ZM715.162 380.832C716.122 375.816 716.851 370.463 717.658 365.214C715.123 366.947 712.589 368.705 710.016 370.437C708.941 375.247 707.904 380.134 706.714 384.762C709.555 383.469 712.358 382.125 715.162 380.832ZM711.667 397.07C712.781 391.951 713.971 386.934 714.97 381.634C712.166 382.952 709.325 384.271 706.522 385.564C705.254 390.425 703.834 395.002 702.451 399.708C705.523 398.855 708.595 397.975 711.667 397.07ZM708.173 412.662C709.363 407.853 710.438 402.785 711.514 397.769C708.442 398.648 705.331 399.553 702.259 400.432C700.954 405.034 699.648 409.663 698.227 414.085C701.53 413.619 704.87 413.154 708.173 412.662ZM704.026 427.763C705.37 423.005 706.752 418.248 707.981 413.309C704.64 413.8 701.299 414.266 697.958 414.757C696.461 419.308 694.886 423.652 693.312 428.022C696.883 427.944 700.454 427.841 704.026 427.763ZM699.686 442.321C701.146 437.796 702.528 433.116 703.872 428.384C700.262 428.461 696.691 428.539 693.12 428.642C691.546 432.986 689.971 437.279 688.32 441.442C692.083 441.726 695.885 442.01 699.686 442.321ZM694.886 456.335C696.461 451.966 697.997 447.492 699.494 442.915C695.654 442.605 691.891 442.321 688.09 442.036C686.4 446.251 684.634 450.337 682.867 454.37C686.861 455.017 690.816 455.637 694.886 456.335ZM689.664 469.833C691.392 465.618 693.082 461.352 694.694 456.93C690.624 456.232 686.63 455.611 682.598 454.939C680.794 458.973 678.95 462.903 677.069 466.782C681.254 467.79 685.44 468.773 689.664 469.833ZM684.211 482.839C686.016 478.857 687.706 474.617 689.434 470.428C685.171 469.368 680.986 468.385 676.762 467.377C674.88 471.229 672.96 475.082 671.002 478.754C675.418 480.098 679.757 481.443 684.211 482.839ZM678.106 495.225C680.064 491.346 682.099 487.494 683.942 483.434C679.488 482.038 675.11 480.693 670.694 479.323C668.659 483.046 666.547 486.589 664.435 490.157C668.966 491.838 673.536 493.518 678.106 495.225ZM671.885 507.197C673.92 503.577 675.84 499.672 677.798 495.82C673.19 494.087 668.659 492.406 664.09 490.726C662.016 494.242 659.981 497.862 657.792 501.172C662.477 503.163 667.2 505.154 671.885 507.197ZM665.011 518.471C667.238 514.954 669.427 511.463 671.578 507.766C666.854 505.749 662.131 503.732 657.446 501.741C655.181 505.154 652.8 508.309 650.458 511.541C655.258 513.816 660.134 516.169 665.011 518.471ZM248.256 577.115C412.109 642.095 577.421 657.014 664.666 519.065C659.789 516.738 654.912 514.385 650.074 512.11C558.221 639.069 398.938 629.993 241.997 574.348C244.07 575.279 246.144 576.184 248.256 577.115ZM215.27 563.359C216.922 564.083 218.573 564.833 220.224 565.531C222.144 566.281 224.102 567.057 226.022 567.781C223.91 566.798 221.837 565.815 219.725 564.833C218.227 564.342 216.73 563.85 215.27 563.359ZM198.49 555.912C201.638 557.334 204.787 558.73 207.974 560.127C210.125 560.877 212.275 561.601 214.464 562.325C211.661 560.98 208.896 559.558 206.093 558.187C203.558 557.438 201.024 556.688 198.49 555.912ZM183.475 548.931C187.008 550.585 190.541 552.24 194.074 553.869C196.8 554.723 199.565 555.524 202.291 556.352C198.835 554.645 195.379 552.938 191.923 551.206C189.12 550.43 186.278 549.68 183.475 548.931ZM168.691 541.82C172.416 543.63 176.179 545.466 179.942 547.25C183.014 548.103 186.086 548.905 189.158 549.706C185.472 547.819 181.786 545.905 178.099 543.992C174.912 543.32 171.802 542.544 168.691 541.82ZM153.869 534.554C157.901 536.571 161.971 538.562 166.042 540.527C169.267 541.277 172.493 542.053 175.718 542.777C171.686 540.656 167.654 538.536 163.661 536.39C160.358 535.795 157.094 535.174 153.869 534.554ZM139.277 527.081C143.424 529.227 147.61 531.348 151.795 533.468C155.136 534.114 158.477 534.787 161.856 535.407C157.594 533.106 153.293 530.83 149.069 528.503C145.766 528.064 142.502 527.572 139.277 527.081ZM124.608 519.401C128.909 521.677 133.171 523.952 137.472 526.176C140.774 526.693 144.115 527.185 147.456 527.65C143.117 525.271 138.816 522.815 134.515 520.384C131.174 520.074 127.872 519.763 124.608 519.401ZM109.67 511.412C114.125 513.842 118.618 516.221 123.11 518.626C126.451 518.988 129.792 519.324 133.171 519.66C128.678 517.126 124.224 514.592 119.731 512.006C116.352 511.799 113.011 511.618 109.67 511.412ZM94.6944 503.163C99.2256 505.697 103.834 508.205 108.403 510.713C111.744 510.92 115.162 511.127 118.541 511.308C113.933 508.645 109.325 506.007 104.755 503.318C101.414 503.267 98.0352 503.215 94.6944 503.163ZM79.68 494.656C84.288 497.293 88.896 499.931 93.5424 502.517C96.9216 502.568 100.301 502.62 103.68 502.672C98.9952 499.905 94.3872 497.112 89.7408 494.32C86.4 494.449 83.0592 494.553 79.68 494.656ZM64.512 485.916C69.1968 488.657 73.92 491.372 78.6816 494.087C82.0608 493.984 85.4016 493.88 88.8192 493.777C84.0192 490.907 79.296 487.985 74.5728 485.089C71.1936 485.373 67.8528 485.632 64.512 485.916ZM49.1904 476.866C53.952 479.71 58.7904 482.529 63.5904 485.347C66.9312 485.089 70.3104 484.804 73.6896 484.52C68.8512 481.521 63.9744 478.547 59.1744 475.547C55.8336 476.013 52.4928 476.452 49.1904 476.866ZM33.7536 467.558C38.592 470.505 43.4304 473.427 48.3456 476.375C51.648 475.935 55.0272 475.496 58.368 475.056C53.4528 471.953 48.5376 468.85 43.6992 465.748C40.3584 466.342 37.0176 466.963 33.7536 467.558ZM18.24 457.99C23.1168 461.016 27.9936 464.067 32.9856 467.092C36.2496 466.472 39.6288 465.877 42.9696 465.282C37.9776 462.076 33.024 458.869 28.1088 455.663C24.768 456.413 21.504 457.189 18.24 457.99ZM2.5728 448.139C7.488 451.267 12.48 454.396 17.472 457.525C20.736 456.723 24.0384 455.948 27.3792 455.172C22.3104 451.862 17.3184 448.552 12.3264 445.269C9.024 446.225 5.7984 447.182 2.5728 448.139ZM0 380.367C88.6272 354.509 214.195 355.052 392.141 409.637C400.051 411.654 408.038 413.748 416.141 415.972C424.896 417.886 433.805 419.954 442.829 422.1C451.315 423.626 459.917 425.229 468.634 426.961C476.582 428.048 484.646 429.211 492.787 430.426C501.235 431.125 509.76 431.9 518.4 432.728C526.042 432.909 533.722 433.141 541.478 433.374C549.158 433.012 556.915 432.676 564.71 432.34C572.083 431.383 579.494 430.401 586.944 429.418C593.894 427.815 600.845 426.186 607.834 424.505C614.554 422.126 621.312 419.696 628.07 417.187C634.176 414.11 640.282 410.93 646.349 407.672C652.262 403.561 658.138 399.32 663.974 394.924C669.005 390.141 673.997 385.228 678.912 380.16C683.904 373.773 688.781 367.153 693.581 360.327C697.229 353.863 700.762 347.166 704.218 340.288C707.866 331.238 711.322 321.851 714.624 312.181C716.851 303.829 718.925 295.193 720.845 286.349C722.765 274.352 724.378 261.862 725.875 249.063C726.528 239.056 727.104 228.843 727.45 218.267L727.526 216.819C727.526 211.518 727.565 206.321 727.45 200.839L727.258 180.36C725.53 155.459 723.84 131.179 722.189 107.649C719.578 70.0785 717.082 34.473 714.778 0.67744H715.699C718.003 34.473 720.499 70.0527 723.11 107.623C724.416 126.241 725.76 145.323 727.104 165.001L726.797 137.773C726.259 88.8251 725.76 43.1869 725.491 0.703297H726.413C726.682 43.1869 727.181 88.7993 727.718 137.773C727.872 151.71 728.026 165.906 728.179 180.36L728.41 183.411C728.64 186.954 728.755 190.263 728.947 193.728C729.83 178.886 730.675 164.354 731.52 150.107C734.669 96.1686 737.587 46.4708 740.621 0.67744H741.542C738.547 46.4708 735.629 96.1686 732.442 150.107C731.443 166.914 730.445 184.109 729.408 201.718C729.715 206.786 730.022 211.88 730.214 216.793C733.709 192.177 737.05 168.388 740.314 145.401C747.686 93.0399 754.483 44.8676 761.126 0.651583H762.048C755.366 44.8676 748.608 93.0657 741.235 145.453C737.818 169.862 734.246 195.176 730.483 221.422C730.714 227.317 730.867 233.083 731.021 238.824C740.621 199.365 749.53 162.079 757.901 126.835C768.73 81.4299 778.714 39.4117 788.429 0.67744H789.35C779.635 39.4376 769.651 81.4816 758.822 126.939C750.182 163.217 741.005 201.667 731.098 242.314C731.251 248.261 731.405 254.235 731.443 260.001C752.678 202.365 771.456 149.073 788.736 100.073C801.178 64.7002 812.851 31.6028 824.141 0.67744H825.062C813.773 31.6545 802.099 64.8036 789.619 100.228C772.147 149.848 753.101 203.864 731.443 262.38C731.482 268.585 731.443 274.636 731.366 280.687C772.032 204.201 805.44 134.722 835.315 72.5608C847.411 47.4016 858.931 23.4319 870.144 0.67744H871.104C859.891 23.4836 848.333 47.5051 836.198 72.7418C806.093 135.342 772.416 205.39 731.366 282.548C731.29 288.651 731.251 294.753 731.059 300.648C799.68 208.726 851.328 124.767 896.602 51.1768C907.315 33.749 917.683 16.9158 927.821 0.67744H928.819C918.643 16.9934 908.198 33.9041 897.446 51.4095C851.981 125.31 800.064 209.656 731.059 302.019C730.867 308.199 730.56 314.224 730.253 320.222C834.931 220.129 906.24 123.836 968.294 40.084C978.278 26.6124 987.994 13.451 997.594 0.67744H998.592C988.915 13.5544 979.123 26.7934 969.062 40.3685C906.854 124.353 835.354 220.93 730.176 321.36C729.869 327.359 729.6 333.384 729.178 339.15C876.096 240.685 966.144 133.481 1044.83 39.8255C1056.04 26.4831 1067.02 13.4251 1077.89 0.703297H1078.92C1067.94 13.5285 1056.92 26.6899 1045.59 40.1357C966.797 133.972 876.557 241.409 729.139 340.055C728.678 346.106 728.064 351.898 727.488 357.741L727.642 357.612L727.68 357.586L727.718 357.56C920.986 270.887 1027.55 152.848 1121.78 48.4877C1136.52 32.1458 1150.96 16.166 1165.4 0.67744H1166.48C1151.96 16.2694 1137.41 32.3785 1122.55 48.8238C1028.2 153.21 921.6 271.3 728.179 358.052C727.872 358.259 727.603 358.465 727.296 358.646C726.72 364.464 726.221 370.412 725.53 375.971C726.221 375.635 726.912 375.324 727.642 374.988L727.68 374.962H727.718C968.448 309.104 1088.79 179.61 1196.58 63.5883C1216.67 41.9716 1236.33 20.8462 1256.22 0.651583H1257.29C1237.29 20.9237 1217.51 42.1785 1197.35 63.8986C1089.48 179.972 969.101 309.569 728.102 375.505C727.219 375.919 726.336 376.333 725.453 376.747C724.685 382.616 723.763 388.15 722.88 393.812C724.493 393.347 726.106 392.882 727.68 392.416L727.718 392.39H727.757C1017.1 354.535 1149.04 211.906 1268.35 82.8779C1294.69 54.3831 1320.46 26.5606 1347.15 0.651583H1348.26C1321.46 26.6382 1295.62 54.59 1269.12 83.2141C1149.7 212.346 1017.68 355.052 728.026 392.985C726.259 393.502 724.531 393.993 722.765 394.511C721.92 400.044 721.114 405.655 720.154 410.93C722.688 410.568 725.222 410.206 727.795 409.818H727.834H727.872C1066.37 405.655 1208.06 247.977 1336.9 104.702C1369.73 68.1651 1401.75 32.5595 1435.97 0.67744H1437.08C1402.75 32.6371 1370.65 68.372 1337.7 105.012C1208.79 248.442 1066.94 406.25 727.987 410.439C725.338 410.827 722.688 411.214 720.077 411.576C719.04 417.032 717.888 422.255 716.774 427.505C720.499 427.427 724.186 427.349 727.949 427.272H727.987H728.026C1116.1 461.352 1266.16 286.556 1402.41 127.87C1441.46 82.3866 1479.36 38.2223 1521.45 0.651583H1522.6C1480.4 38.274 1442.38 82.5418 1403.21 128.154C1266.82 287.022 1116.63 461.972 727.91 427.841C724.109 427.918 720.384 427.996 716.621 428.073C715.469 433.271 714.317 438.442 713.088 443.407C718.042 443.821 722.995 444.234 727.987 444.674H728.026H728.064C1166.32 520.694 1323.49 326.661 1465.31 151.581C1510.04 96.3496 1553.24 43.0059 1603.28 0.599869H1604.43C1554.28 43.0318 1510.96 96.5047 1466.11 151.865C1324.15 327.126 1166.82 521.367 727.872 445.243C722.842 444.803 717.926 444.389 712.934 443.976C711.667 448.992 710.323 453.905 708.941 458.714C715.315 459.826 721.651 460.912 728.064 462.102H728.102C1216.97 583.192 1380.13 367.722 1525.79 175.447C1575.59 109.692 1623.32 46.6518 1681.34 0.67744H1682.53C1624.36 46.6518 1576.51 109.821 1526.59 175.732C1380.79 368.24 1217.43 583.967 727.795 462.748C721.382 461.584 715.085 460.498 708.749 459.387C707.328 464.222 705.83 468.902 704.294 473.505C712.166 475.496 720.077 477.487 728.102 479.607H728.141C1268.28 648.3 1436.47 409.12 1584.31 198.9C1638.53 121.767 1690.06 48.4877 1756.22 0.67744H1757.45C1691.1 48.4359 1639.45 121.845 1585.08 199.184C1437.04 409.663 1268.66 649.128 727.718 480.176C719.731 478.081 711.859 476.09 704.026 474.099C702.49 478.676 700.992 483.305 699.341 487.675C708.826 490.726 718.387 493.829 728.064 497.087C1188.86 667.254 1395.34 544.406 1534.27 373.747C1573.9 325.084 1608 272.516 1640.99 221.758C1699.28 132.007 1753.92 47.8671 1828.84 0.651583H1830.14C1755 47.7119 1700.24 132.033 1641.79 221.99C1608.81 272.774 1574.67 325.342 1535.04 374.032C1395.88 544.974 1189.09 668.029 727.68 497.604C718.042 494.372 708.557 491.295 699.149 488.269C697.421 492.717 695.578 496.88 693.734 501.12C705.024 505.439 716.506 509.886 728.102 514.514C1179.57 704.126 1400.83 617.039 1543.72 462.722C1604.93 396.605 1651.78 318.128 1696.13 243.788C1757.45 141.057 1814.05 46.1864 1897.5 2.53917C1898.73 1.89274 1899.96 1.27216 1901.22 0.651583H1902.72C1901.15 1.4273 1899.61 2.20302 1898.04 3.0046C1814.82 46.5484 1758.22 141.341 1696.97 243.995C1652.58 318.361 1605.73 396.864 1544.49 463.032C1401.37 617.634 1179.76 704.902 727.68 515.032C716.122 510.429 704.755 506.007 693.504 501.715C691.699 505.904 689.933 510.119 688.013 514.075C701.184 519.789 714.586 525.788 728.141 531.968C1183.26 743.74 1417.08 679.588 1565.15 535.226C1644.29 458.042 1698.97 357.922 1749.85 264.784C1802.88 167.69 1851.76 78.1719 1920 29.9997V30.8788C1852.26 79.051 1803.53 168.259 1750.69 264.991C1699.81 358.155 1645.09 458.326 1565.88 535.562C1417.54 680.208 1183.37 744.515 727.642 532.459C714.125 526.305 700.8 520.332 687.706 514.644C685.709 518.677 683.635 522.53 681.562 526.357C696.806 533.726 712.358 541.406 728.179 549.422C1193.09 784.698 1438.89 737.974 1592.52 600.206C1687.76 514.825 1747.62 394.485 1802.27 284.617C1840.59 207.562 1876.38 135.679 1920 84.5328V85.7481C1876.8 136.765 1841.2 208.234 1803.15 284.798C1748.47 394.717 1688.56 515.109 1593.25 600.568C1439.31 738.594 1193.13 785.448 727.642 549.913C711.898 541.949 696.422 534.295 681.254 526.978C597.581 679.148 421.67 655.127 247.757 577.761C238.387 574.038 229.056 570.185 219.725 566.177C211.2 562.919 202.714 559.532 194.227 556.041C185.011 552.706 175.834 549.267 166.733 545.673C158.17 542.725 149.606 539.674 141.158 536.519C132.096 533.623 123.072 530.649 114.163 527.547C105.562 525.038 97.0368 522.427 88.5888 519.738C79.68 517.41 70.9248 515.006 62.2464 512.523C53.4912 510.558 44.8512 508.516 36.3648 506.421C27.8784 504.844 19.5072 503.215 11.328 501.534C7.5264 501.017 3.7632 500.474 0.0384 499.931V499.31L2.2272 499.621L0.0384 499.155V498.328C2.496 498.509 4.992 498.69 7.488 498.845C4.992 498.147 2.496 497.449 0.0384 496.75V496.078C3.6096 497.087 7.1808 498.069 10.7904 499.052C13.8624 499.259 16.9728 499.44 20.0832 499.621C16.32 498.405 12.6336 497.164 8.9472 495.923C5.952 495.923 2.9952 495.949 0.0384 495.949V495.354C2.3808 495.354 4.7616 495.354 7.1424 495.328C4.7616 494.527 2.3808 493.725 0.0384 492.898V492.2C3.072 493.234 6.144 494.268 9.216 495.302C12.4416 495.277 15.744 495.251 19.0464 495.225C14.8992 493.622 10.752 492.019 6.6816 490.39L0 490.907V490.286L5.2992 489.898C3.5328 489.2 1.7664 488.476 0 487.778V487.054C2.2656 487.959 4.5312 488.864 6.8352 489.769C10.0992 489.536 13.44 489.278 16.7808 489.019C12.3648 487.08 7.9488 485.115 3.6096 483.15L0 483.667V483.046L2.5728 482.684L0 481.52V480.771C1.2672 481.34 2.5344 481.934 3.8016 482.503C7.0656 482.038 10.368 481.572 13.7088 481.107C9.1008 478.831 4.4928 476.556 0 474.255V473.479L0.1536 473.556C3.3792 472.884 6.6816 472.212 9.984 471.54C6.6432 469.704 3.3024 467.868 0 466.058V465.256C3.648 467.273 7.3344 469.316 11.0592 471.333C14.3232 470.686 17.5872 470.014 20.928 469.368C16.0512 466.549 11.2512 463.705 6.4896 460.886C4.3008 461.429 2.1504 461.998 0.0384 462.567V461.921C1.92 461.429 3.84 460.938 5.76 460.447C3.84 459.309 1.9584 458.171 0.0384 457.059V456.232C2.2656 457.551 4.4928 458.895 6.72 460.214C9.9456 459.387 13.2096 458.559 16.512 457.758C11.52 454.629 6.5664 451.526 1.6512 448.397L0 448.889V448.216L0.96 447.932L0 447.337V446.484L1.8816 447.673C5.1072 446.717 8.3328 445.734 11.6736 444.803C7.7568 442.217 3.8784 439.606 0.0384 437.02V436.141C4.1856 438.933 8.4096 441.752 12.6336 444.544C110.592 416.981 245.837 401.518 428.198 421.919C424.55 420.704 420.979 419.515 417.37 418.351C229.67 387.71 95.1552 402.449 0 433.503V432.805C94.5408 402.009 227.789 387.296 413.222 417.032C409.997 415.972 406.771 414.964 403.584 413.955C221.184 375.712 91.584 386.288 0 416.774V416.05C90.6624 385.952 218.419 375.324 397.555 412.042C395.674 411.447 393.677 410.801 391.795 410.206C214.426 365.059 88.8192 370.618 0 399.165V398.389C86.208 370.773 206.861 364.671 375.667 405.448C206.362 355.75 85.824 356.061 0 381.168V380.367Z" fill="#FFFFFF" fill-opacity="0.38"/>
</svg>
