<?xml version="1.0" standalone="no"?>
<!DOCTYPE svg PUBLIC "-//W3C//DTD SVG 20010904//EN"
 "http://www.w3.org/TR/2001/REC-SVG-20010904/DTD/svg10.dtd">
<svg version="1.0" xmlns="http://www.w3.org/2000/svg"
 width="1899.000000pt" height="378.000000pt" viewBox="0 0 1899.000000 378.000000"
 preserveAspectRatio="xMidYMid meet">

<g transform="translate(0.000000,378.000000) scale(0.100000,-0.100000)"
fill="#000000" stroke="none">
<path d="M3920 3773 c0 -23 85 -303 100 -328 9 -16 20 -47 23 -69 4 -21 17
-55 31 -75 13 -20 27 -47 31 -61 4 -14 18 -47 30 -75 37 -80 75 -196 75 -229
0 -41 -82 -469 -110 -574 -12 -46 -35 -115 -51 -154 -16 -39 -29 -72 -29 -73
0 -2 60 -50 133 -108 181 -144 384 -353 477 -492 28 -41 191 -268 370 -514 39
-54 137 -192 219 -309 30 -42 70 -106 89 -142 18 -36 35 -66 36 -68 5 -4 83
30 283 124 51 24 95 44 97 44 5 0 46 24 183 108 92 55 167 127 160 153 -3 11
-1 19 4 19 5 0 9 8 9 17 0 12 -21 -4 -63 -46 -64 -64 -105 -93 -119 -85 -18
11 -6 104 51 404 39 204 59 292 69 302 7 7 21 7 44 -1 141 -46 359 -56 431
-20 99 50 140 99 219 261 36 74 77 133 170 248 68 82 140 177 160 211 50 82
85 196 93 299 10 136 8 132 71 124 49 -6 54 -5 54 13 0 11 12 26 28 34 15 7
53 39 85 69 l58 55 -16 37 c-22 55 -20 62 35 88 28 13 50 27 50 32 0 4 21 8
48 8 l47 1 28 57 c15 31 28 63 27 70 0 6 -18 29 -41 49 -38 34 -66 80 -55 90
5 5 78 -25 86 -35 3 -4 34 -23 70 -41 36 -19 67 -38 70 -42 3 -5 19 -14 35
-21 17 -8 48 -25 69 -38 90 -57 306 -170 323 -170 3 0 0 7 -8 16 -11 13 -7 13
24 -2 20 -10 37 -24 37 -31 0 -7 5 -13 11 -13 5 0 7 5 3 11 -4 8 0 8 15 0 11
-7 20 -16 18 -22 -1 -6 9 -15 23 -20 24 -9 24 -9 5 7 -19 16 -19 16 5 9 52
-16 71 -25 66 -34 -3 -4 5 -7 19 -6 13 2 39 0 58 -5 54 -12 131 5 182 40 142
97 281 400 335 727 21 126 25 183 12 183 -4 0 -13 -39 -20 -87 -17 -132 -38
-235 -53 -264 -4 -9 -11 -31 -14 -48 -16 -94 -120 -326 -175 -391 -95 -112
-135 -134 -239 -128 -63 4 -93 12 -181 51 -130 59 -347 179 -735 407 -403 238
-469 279 -614 377 -69 46 -129 82 -134 80 -11 -3 116 -95 258 -185 119 -75
937 -560 1023 -607 28 -15 51 -30 49 -32 -6 -6 -87 30 -87 39 0 4 -5 8 -10 8
-6 0 -40 18 -75 41 -36 23 -70 37 -76 33 -7 -4 -9 -3 -6 4 6 9 -12 22 -113 80
-19 10 -71 41 -115 67 -44 26 -93 56 -110 65 -211 120 -582 351 -686 427 l-87
63 -1446 0 c-795 0 -1446 -3 -1446 -7z m3665 -743 c-3 -5 -16 -10 -28 -10 -18
0 -19 2 -7 10 20 13 43 13 35 0z"/>
<path d="M2891 1610 c-59 -21 -68 -27 -58 -37 6 -5 82 8 135 23 19 5 14 34 -5
34 -10 -1 -42 -9 -72 -20z"/>
<path d="M2555 1484 c-28 -15 -61 -36 -73 -48 l-24 -21 49 -7 c28 -4 62 -3 81
3 27 9 32 15 32 43 0 17 5 37 12 44 22 22 -24 14 -77 -14z"/>
<path d="M2720 1402 c0 -14 6 -22 16 -22 9 0 53 -19 98 -41 44 -23 75 -35 69
-28 -6 8 -29 23 -50 34 -21 10 -50 28 -65 38 -16 10 -28 15 -28 11 0 -4 -9 1
-20 11 -19 18 -20 17 -20 -3z"/>
<path d="M2950 1275 c7 -8 17 -15 22 -15 5 0 21 -9 36 -20 31 -22 112 -38 112
-22 0 5 -8 8 -18 5 -10 -2 -24 3 -31 11 -8 9 -21 16 -30 16 -9 0 -27 6 -41 13
-14 7 -34 16 -44 20 -16 6 -17 5 -6 -8z"/>
</g>
</svg>
