<svg width="25" height="25" viewBox="0 0 25 25" fill="none" xmlns="http://www.w3.org/2000/svg">
<path d="M13.9585 18.1459H11.3439C9.63558 18.1459 8.25016 16.7084 8.25016 14.9375C8.25016 14.5104 8.60433 14.1563 9.03141 14.1563C9.4585 14.1563 9.81266 14.5104 9.81266 14.9375C9.81266 15.8438 10.5002 16.5834 11.3439 16.5834H13.9585C14.6356 16.5834 15.1981 15.9792 15.1981 15.25C15.1981 14.3438 14.8752 14.1667 14.3439 13.9792L10.146 12.5C9.3335 12.2188 8.23975 11.6146 8.23975 9.75002C8.23975 8.14585 9.50016 6.85419 11.0418 6.85419H13.6564C15.3647 6.85419 16.7502 8.29169 16.7502 10.0625C16.7502 10.4896 16.396 10.8438 15.9689 10.8438C15.5418 10.8438 15.1877 10.4896 15.1877 10.0625C15.1877 9.15627 14.5002 8.41669 13.6564 8.41669H11.0418C10.3647 8.41669 9.80225 9.02085 9.80225 9.75002C9.80225 10.6563 10.1252 10.8334 10.6564 11.0209L14.8543 12.5C15.6668 12.7813 16.7606 13.3854 16.7606 15.25C16.7502 16.8438 15.5002 18.1459 13.9585 18.1459Z" fill="#18C07A"/>
<path d="M12.5 19.5312C12.0729 19.5312 11.7188 19.1771 11.7188 18.75V6.25C11.7188 5.82292 12.0729 5.46875 12.5 5.46875C12.9271 5.46875 13.2812 5.82292 13.2812 6.25V18.75C13.2812 19.1771 12.9271 19.5312 12.5 19.5312Z" fill="#18C07A"/>
<path d="M12.5002 23.6979C6.32308 23.6979 1.30225 18.6771 1.30225 12.5C1.30225 6.3229 6.32308 1.30206 12.5002 1.30206C18.6772 1.30206 23.6981 6.3229 23.6981 12.5C23.6981 18.6771 18.6772 23.6979 12.5002 23.6979ZM12.5002 2.86456C7.18766 2.86456 2.86475 7.18748 2.86475 12.5C2.86475 17.8125 7.18766 22.1354 12.5002 22.1354C17.8127 22.1354 22.1356 17.8125 22.1356 12.5C22.1356 7.18748 17.8127 2.86456 12.5002 2.86456Z" fill="#18C07A"/>
</svg>
