<svg width="105" height="105" viewBox="0 0 105 105" fill="none" xmlns="http://www.w3.org/2000/svg">
<g clip-path="url(#clip0_97_3270)">
<path d="M52.4985 105C58.3377 105 63.0713 100.266 63.0713 94.4273C63.0713 88.5881 58.3377 83.8545 52.4985 83.8545C46.6594 83.8545 41.9258 88.5881 41.9258 94.4273C41.9258 100.266 46.6594 105 52.4985 105Z" fill="#5A9BFF"/>
<path d="M82.147 92.7191C87.9862 92.7191 92.7197 87.9855 92.7197 82.1464C92.7197 76.3072 87.9862 71.5736 82.147 71.5736C76.3078 71.5736 71.5742 76.3072 71.5742 82.1464C71.5742 87.9855 76.3078 92.7191 82.147 92.7191Z" fill="#00A9FF"/>
<path d="M94.4282 63.0728C100.267 63.0728 105.001 58.3392 105.001 52.5C105.001 46.6608 100.267 41.9272 94.4282 41.9272C88.5891 41.9272 83.8555 46.6608 83.8555 52.5C83.8555 58.3392 88.5891 63.0728 94.4282 63.0728Z" fill="#00DBF0"/>
<path d="M82.147 33.4253C87.9862 33.4253 92.7197 28.6917 92.7197 22.8525C92.7197 17.0134 87.9862 12.2798 82.147 12.2798C76.3078 12.2798 71.5742 17.0134 71.5742 22.8525C71.5742 28.6917 76.3078 33.4253 82.147 33.4253Z" fill="#5BEEDC"/>
<path d="M52.4985 21.1455C58.3377 21.1455 63.0713 16.4119 63.0713 10.5728C63.0713 4.73359 58.3377 0 52.4985 0C46.6594 0 41.9258 4.73359 41.9258 10.5728C41.9258 16.4119 46.6594 21.1455 52.4985 21.1455Z" fill="#A5FECB"/>
<path d="M22.854 33.4253C28.6932 33.4253 33.4268 28.6917 33.4268 22.8525C33.4268 17.0134 28.6932 12.2798 22.854 12.2798C17.0148 12.2798 12.2812 17.0134 12.2812 22.8525C12.2812 28.6917 17.0148 33.4253 22.854 33.4253Z" fill="#D6DEFF"/>
<path d="M10.5728 63.0728C16.4119 63.0728 21.1455 58.3392 21.1455 52.5C21.1455 46.6608 16.4119 41.9272 10.5728 41.9272C4.73359 41.9272 0 46.6608 0 52.5C0 58.3392 4.73359 63.0728 10.5728 63.0728Z" fill="#A7B8FF"/>
<path d="M22.854 92.7191C28.6932 92.7191 33.4268 87.9855 33.4268 82.1464C33.4268 76.3072 28.6932 71.5736 22.854 71.5736C17.0148 71.5736 12.2812 76.3072 12.2812 82.1464C12.2812 87.9855 17.0148 92.7191 22.854 92.7191Z" fill="#7592FF"/>
<path d="M35.355 55.4404C35.182 56.1234 34.8348 56.68 34.3124 57.1081C33.79 57.5361 33.108 57.7507 32.2685 57.7507C31.5617 57.7507 30.9388 57.5703 30.4008 57.2086C29.8629 56.8479 29.4421 56.3287 29.1405 55.6529C28.8379 54.9771 28.6866 54.1646 28.6866 53.2142V53.2028C28.6866 52.2762 28.8358 51.4729 29.1343 50.793C29.4328 50.1142 29.8495 49.5876 30.3832 49.2145C30.917 48.8414 31.5378 48.6548 32.2447 48.6548C33.1474 48.6548 33.8532 48.887 34.3601 49.3503C34.8669 49.8136 35.1944 50.3515 35.3436 50.9651L35.3675 51.0594H37.3709L37.3595 50.9651C37.2735 50.2665 37.0196 49.6021 36.5998 48.9741C36.179 48.346 35.6038 47.8329 34.8731 47.436C34.1424 47.039 33.2666 46.8411 32.2457 46.8411C31.115 46.8411 30.1252 47.1002 29.2763 47.6184C28.4275 48.1366 27.7683 48.8715 27.2967 49.8219C26.8251 50.7723 26.5898 51.8917 26.5898 53.18V53.1914C26.5898 54.4879 26.821 55.6125 27.2853 56.5671C27.7486 57.5216 28.4067 58.2596 29.2587 58.7819C30.1106 59.3043 31.115 59.5655 32.2696 59.5655C33.1961 59.5655 34.0232 59.3831 34.7498 59.0172C35.4763 58.6524 36.0692 58.157 36.5293 57.533C36.9885 56.908 37.2735 56.2074 37.3834 55.4301L37.3948 55.3472H35.3799L35.3561 55.4415L35.355 55.4404Z" fill="white"/>
<path d="M40.4326 42.432C40.0792 42.432 39.7765 42.5553 39.5257 42.8031C39.2738 43.0508 39.1484 43.3555 39.1484 43.7162C39.1484 44.0768 39.2738 44.3722 39.5257 44.623C39.7765 44.8749 40.0792 45.0003 40.4326 45.0003C40.786 45.0003 41.098 44.8749 41.3457 44.623C41.5934 44.3722 41.7167 44.0696 41.7167 43.7162C41.7167 43.3627 41.5934 43.0508 41.3457 42.8031C41.098 42.5553 40.7933 42.432 40.4326 42.432Z" fill="white"/>
<path d="M41.4602 47.0742H39.4102V59.3291H41.4602V47.0742Z" fill="white"/>
<path d="M49.2019 46.839C48.5106 46.839 47.9136 47.0473 47.4109 47.464C46.9082 47.8806 46.5548 48.4424 46.3506 49.1492H46.304V47.0753H44.2539V59.3302H46.304V51.7652C46.304 51.1444 46.4118 50.6127 46.6284 50.1691C46.844 49.7255 47.1508 49.3855 47.5477 49.1503C47.9447 48.915 48.4059 48.7968 48.9324 48.7968C49.1832 48.7968 49.4092 48.8082 49.6102 48.8321C49.8113 48.8559 49.9502 48.8829 50.029 48.915V46.924C49.9502 46.9084 49.8383 46.8908 49.6932 46.8711C49.5481 46.8514 49.3843 46.8421 49.204 46.8421L49.2019 46.839Z" fill="white"/>
<path d="M59.2652 55.4404C59.0921 56.1234 58.7449 56.68 58.2225 57.1081C57.7002 57.5361 57.0182 57.7507 56.1787 57.7507C55.4718 57.7507 54.8489 57.5703 54.311 57.2086C53.7731 56.8479 53.3523 56.3287 53.0507 55.6529C52.748 54.9771 52.5967 54.1646 52.5967 53.2142V53.2028C52.5967 52.2762 52.746 51.4729 53.0445 50.793C53.343 50.1142 53.7596 49.5876 54.2934 49.2145C54.8272 48.8414 55.448 48.6548 56.1548 48.6548C57.0576 48.6548 57.7634 48.887 58.2702 49.3503C58.777 49.8136 59.1046 50.3515 59.2538 50.9651L59.2776 51.0594H61.2811L61.2697 50.9651C61.1837 50.2665 60.9297 49.6021 60.51 48.9741C60.0892 48.346 59.5139 47.8329 58.7833 47.436C58.0526 47.039 57.1768 46.8411 56.1559 46.8411C55.0251 46.8411 54.0353 47.1002 53.1865 47.6184C52.3376 48.1366 51.6784 48.8715 51.2069 49.8219C50.7353 50.7723 50.5 51.8917 50.5 53.18V53.1914C50.5 54.4879 50.7311 55.6125 51.1955 56.5671C51.6587 57.5216 52.3169 58.2596 53.1688 58.7819C54.0208 59.3043 55.0251 59.5655 56.1797 59.5655C57.1063 59.5655 57.9334 59.3831 58.6599 59.0172C59.3865 58.6524 59.9793 58.157 60.4395 57.533C60.8986 56.908 61.1837 56.2074 61.2935 55.4301L61.3049 55.3472H59.2901L59.2662 55.4415L59.2652 55.4404Z" fill="white"/>
<path d="M65.3431 42.3263H63.293V59.3291H65.3431V42.3263Z" fill="white"/>
<path d="M78.411 53.0017C78.411 51.7766 78.1943 50.6997 77.7632 49.7732C77.331 48.8466 76.7122 48.1252 75.9069 47.6111C75.1016 47.0971 74.1408 46.839 73.0256 46.839C71.9104 46.839 70.9403 47.1085 70.1153 47.6464C69.2903 48.1843 68.6497 48.9347 68.1947 49.8965C67.7387 50.8594 67.5117 51.9725 67.5117 53.237V53.2484C67.5117 54.5284 67.7377 55.6425 68.1896 56.5888C68.6414 57.5351 69.2892 58.2678 70.1339 58.7861C70.9786 59.3043 71.986 59.5634 73.1562 59.5634C73.8237 59.5634 74.4445 59.4712 75.0176 59.2867C75.5908 59.1022 76.1018 58.8431 76.5495 58.5093C76.9972 58.1756 77.3642 57.789 77.6512 57.3485C77.9383 56.9091 78.1322 56.4375 78.2348 55.9348L78.2586 55.8167H76.2438L76.2085 55.9224C76.0904 56.2758 75.8945 56.5898 75.6198 56.8655C75.3452 57.1402 75.0031 57.3568 74.5948 57.5133C74.1864 57.6709 73.7231 57.7486 73.2039 57.7486C72.4649 57.7486 71.8254 57.5859 71.2833 57.2594C70.7413 56.9339 70.3225 56.4644 70.0282 55.8509C69.7473 55.2663 69.6022 54.5667 69.5887 53.7531H78.412V52.9986L78.411 53.0017ZM71.2585 49.1306C71.7767 48.8124 72.3623 48.6538 73.0142 48.6538C73.6661 48.6538 74.2434 48.8051 74.7461 49.1078C75.2488 49.4104 75.6437 49.8716 75.9307 50.4925C76.1443 50.9547 76.278 51.5092 76.3329 52.1539H69.6178C69.6758 51.5403 69.8137 51.0045 70.0334 50.5453C70.3319 49.9203 70.7402 49.4498 71.2585 49.1316V49.1306Z" fill="white"/>
</g>
<defs>
<clipPath id="clip0_97_3270">
<rect width="105" height="105" fill="white"/>
</clipPath>
</defs>
</svg>
