<svg width="33" height="33" viewBox="0 0 33 33" fill="none" xmlns="http://www.w3.org/2000/svg">
<path d="M21.4496 13.2C22.8165 13.2 23.9246 12.0919 23.9246 10.725C23.9246 9.3581 22.8165 8.25 21.4496 8.25C20.0827 8.25 18.9746 9.3581 18.9746 10.725C18.9746 12.0919 20.0827 13.2 21.4496 13.2Z" stroke="#123B79" stroke-width="2" stroke-linecap="round" stroke-linejoin="round"/>
<path d="M11.5502 18.975C12.9171 18.975 14.0252 17.8669 14.0252 16.5C14.0252 15.1331 12.9171 14.025 11.5502 14.025C10.1833 14.025 9.0752 15.1331 9.0752 16.5C9.0752 17.8669 10.1833 18.975 11.5502 18.975Z" stroke="#123B79" stroke-width="2" stroke-linecap="round" stroke-linejoin="round"/>
<path d="M21.4496 24.75C22.8165 24.75 23.9246 23.6419 23.9246 22.275C23.9246 20.9081 22.8165 19.8 21.4496 19.8C20.0827 19.8 18.9746 20.9081 18.9746 22.275C18.9746 23.6419 20.0827 24.75 21.4496 24.75Z" stroke="#123B79" stroke-width="2" stroke-linecap="round" stroke-linejoin="round"/>
<path d="M13.6865 17.7458L19.3213 21.0293" stroke="#123B79" stroke-width="2" stroke-linecap="round" stroke-linejoin="round"/>
<path d="M19.313 11.9707L13.6865 15.2542" stroke="#123B79" stroke-width="2" stroke-linecap="round" stroke-linejoin="round"/>
</svg>
